<svg xmlns="http://www.w3.org/2000/svg" version="1.1" xmlns:xlink="http://www.w3.org/1999/xlink" xmlns:svgjs="http://svgjs.dev/svgjs" viewBox="0 0 25 14">
  <g transform="matrix(0.9,0,0,0.9,8,6)">
    <rect width="34.517097887626825" height="50.517097887626825" x="-12.082537935488173" y="-15.826861443813414" fill="#E9F0F4"/>
    <g transform="matrix(1,0,0,1,0,0)" clip-path="url(#SvgjsClipPath18351)">
      <g clip-path="url(#SvgjsClipPath183468798e685-4dbc-4ef8-a40a-44acc2ba6681)">
        <path d=" M -8.586273472118775 2.017855605690059 C -8.483188118076892 2.400534712773098 -8.089672324631604 2.627445118344167 -7.706831367616816 2.524962481532766 C -7.3241041242810585 2.4218438439728063 -7.096850566785561 2.028618587182824 -7.198582359170892 1.6455203770308318 C -7.301667713212786 1.2628412699477707 -7.695183506658085 1.0359308643767244 -8.078024463672861 1.1384135011881025 C -8.26218813140035 1.1874056574232972 -8.41928451229434 1.3076725362506982 -8.514639690105245 1.4726691360583013 C -8.60999486791614 1.6376657358659275 -8.635769067309116 1.8338266027036427 -8.586273472118775 2.017855605690059 Z" fill="#3361e1" transform="matrix(1,0,0,1,0,0)" fill-rule="evenodd"/>
      </g>
      <g clip-path="url(#SvgjsClipPath183468798e685-4dbc-4ef8-a40a-44acc2ba6681)">
        <path d=" M -5.952515689025889 1.3120176568820066 C -5.901601077564422 1.486020312919762 -5.7210082918333445 1.5874769341169914 -5.545916482269143 1.5404441775318967 C -5.371913826231388 1.4895295660704058 -5.2704572050341465 1.308936780339316 -5.317489961619265 1.1338449707751153 C -5.3678930922113945 0.9599989268039888 -5.548141629640667 0.8584504550128242 -5.722947035772805 0.9054184501252722 C -5.897410209683861 0.9558417711217002 -5.9994597876107125 1.1365862972010907 -5.952515689025889 1.3120176568820066 Z" fill="#3361e1" transform="matrix(1,0,0,1,0,0)" fill-rule="evenodd"/>
      </g>
      <g clip-path="url(#SvgjsClipPath183468798e685-4dbc-4ef8-a40a-44acc2ba6681)">
        <path d=" M -7.158607718057157 0.9316874999999998 C -7.158911062077406 1.0709220746739083 -7.103812855162624 1.204557885413145 -7.005466099407576 1.3031189042526385 C -6.9071193436525515 1.4016799230921082 -6.773603758279729 1.4570688279351858 -6.634368853165719 1.4570684974946788 C -6.495133948051708 1.4570688279351858 -6.361618362678886 1.4016799230921082 -6.263271606923849 1.3031189042526385 C -6.164924851168802 1.204557885413145 -6.109826644254031 1.0709220746739083 -6.110129988274281 0.9316874999999998 C -6.110129986202466 0.7926507162277887 -6.165362134617244 0.6593085088259105 -6.263675991315694 0.5609946491974727 C -6.361989848014156 0.46268078956903524 -6.495332053769982 0.40744863718036584 -6.634368845353956 0.40744863510856266 C -6.7734056447496815 0.40744863510856266 -6.906747851328539 0.46268078551028013 -7.005061709491989 0.5609946436737299 C -7.103375567655439 0.6593085018371565 -7.158607718057157 0.7926507084160255 -7.158607718057157 0.9316874999999998 Z" fill="#3361e1" transform="matrix(1,0,0,1,0,0)" fill-rule="evenodd"/>
      </g>
      <g clip-path="url(#SvgjsClipPath183468798e685-4dbc-4ef8-a40a-44acc2ba6681)">
        <path d=" M -3.4501031553066692 4.982831843725264 C -3.0674240482236304 4.879746489683359 -2.8405136426525726 4.486230696238071 -2.9429962794639737 4.103389739223283 C -2.991988435699157 3.919226071495806 -3.1122553145265472 3.762129690601805 -3.2772519143341725 3.6667745127909113 C -3.442248514141787 3.5714193349800167 -3.6384093809795024 3.545645135587028 -3.822438383965931 3.5951407307773815 C -4.205117491048969 3.6982260848192636 -4.432027896620027 4.09174187826454 -4.329545259808626 4.474582835279327 C -4.2264266222486775 4.857310078615085 -3.833201365458695 5.084563636110583 -3.4501031553066808 4.982831843725264 Z" fill="#000000" transform="matrix(1,0,0,1,0,0)" fill-rule="evenodd"/>
      </g>
      <g clip-path="url(#SvgjsClipPath183468798e685-4dbc-4ef8-a40a-44acc2ba6681)">
        <path d=" M -4.155941104114733 2.35021619323562 C -3.981683899285617 2.3003329794614666 -3.879888866316888 2.119646795941958 -3.927514583464866 1.9447591190821027 C -3.9748932655014206 1.7681937579459701 -4.156364114598842 1.6634007324108495 -4.332971657618383 1.7106219354160084 C -4.509586162519976 1.7580335348321174 -4.614722319300755 1.9392147758863514 -4.568250973887719 2.1160790095695488 C -4.545596029968369 2.2024163141639956 -4.48905321053973 2.27595521630811 -4.411434884550248 2.320032105027895 C -4.333816558560766 2.3641089937477044 -4.241693749266547 2.374992401543162 -4.155941104114745 2.350216193235643 Z" fill="#000000" transform="matrix(1,0,0,1,0,0)" fill-rule="evenodd"/>
      </g>
      <g clip-path="url(#SvgjsClipPath183468798e685-4dbc-4ef8-a40a-44acc2ba6681)">
        <path d=" M -4.5351291283935105 3.555166089663623 C -4.245860591660952 3.554537925583153 -4.0115184275825655 3.3201957615047553 -4.0108902635020725 3.030927224772209 C -4.010889578907599 2.741212757965685 -4.245415346119763 2.506176041348242 -4.535129128369627 2.505546227277553 C -4.825289041160682 2.50554622727753 -5.0605101258881655 2.7407673120050022 -5.0605101258881655 3.030927224772209 C -5.0598803118306686 3.3206410070220738 -4.824843595223905 3.5551667742449284 -4.535129128393522 3.555166089663623 Z" fill="#000000" transform="matrix(1,0,0,1,0,0)" fill-rule="evenodd"/>
      </g>
      <g clip-path="url(#SvgjsClipPath183468798e685-4dbc-4ef8-a40a-44acc2ba6681)">
        <path d=" M -6.632084587959225 4.563669178332762 C -6.2888608073351815 4.761139179368724 -5.8505661117507675 4.6436475943053015 -5.652134814371319 4.300978679585411 C -5.556621087875781 4.136100032854917 -5.530639185783426 3.939992013034338 -5.5799225027659745 3.755929537869135 C -5.629205819748511 3.571867062703955 -5.7497034445384365 3.414979405145229 -5.914825313118647 3.3198867733942645 C -6.079601288206085 3.2247358884726722 -6.275432816354328 3.1989570634097317 -6.459219620757466 3.2482239223989122 C -6.643006425160605 3.2974907813880927 -6.79968604376295 3.4177656015007383 -6.894775086706565 3.5825772721416156 C -6.990288813202092 3.7474559188721326 -7.016270715294446 3.943563938692688 -6.966987398311899 4.127626413857891 C -6.9177040813293615 4.311688889023094 -6.797206456539424 4.46857654658182 -6.632084587959225 4.563669178332773 Z" fill="#3361e1" transform="matrix(1,0,0,1,0,0)" fill-rule="evenodd"/>
      </g>
      <g clip-path="url(#SvgjsClipPath183468798e685-4dbc-4ef8-a40a-44acc2ba6681)">
        <path d=" M -5.2683782596795545 2.2017389548132025 C -5.191933891631513 2.247083004630152 -5.100472928918268 2.259800837874919 -5.014557498693253 2.237033248865302 C -4.928642068468227 2.214265659855662 -4.8554820647428585 2.1579232705046554 -4.811525218379822 2.0806728988688006 C -4.766181168562884 2.004228530820747 -4.753463335318106 1.912767568107502 -4.776230924327734 1.8268521378824865 C -4.798998513337363 1.7409367076574478 -4.855340902688381 1.667776703932093 -4.932591274324247 1.6238198575690674 C -5.008880599862074 1.5778327816223703 -5.10055920035176 1.5647529252631678 -5.186665004361234 1.5875709633256747 C -5.272770808370719 1.6103890013882065 -5.345940606216891 1.6671536833064025 -5.389444315623969 1.7448859135134702 C -5.435108018664718 1.82125357877558 -5.448005638360607 1.9128225646040047 -5.425213032869478 1.9988323966460166 C -5.4024204273783365 2.084842228688075 -5.345868350159219 2.1580070448340214 -5.2683782596795545 2.2017389548132025 Z" fill="#000000" transform="matrix(1,0,0,1,0,0)" fill-rule="evenodd"/>
      </g>
      <g clip-path="url(#SvgjsClipPath183468798e685-4dbc-4ef8-a40a-44acc2ba6681)">
        <path d=" M -6.389952476070363 2.786510847676853 C -6.291793524585606 2.885062022505122 -6.158425787059708 2.9404605870322698 -6.0193304463159745 2.9404605870322698 C -5.880235105572228 2.9404605870322698 -5.746867368046329 2.885062022505122 -5.648708416561574 2.786510847676853 C -5.444074822530618 2.5817990493814396 -5.444074822530618 2.249978586463464 -5.648708416561574 2.0452667881680515 C -5.746867368046329 1.9467156133397827 -5.880235105572228 1.8913170488126338 -6.0193304463159745 1.8913170488126338 C -6.158425787059708 1.8913170488126338 -6.291793524585606 1.9467156133397827 -6.389952476070363 2.0452667881680515 C -6.4885036508986325 2.1434257396528196 -6.543902215425792 2.2767934771787175 -6.543902215425792 2.415888817922464 C -6.543902215425792 2.554984158666186 -6.4885036508986325 2.688351896192085 -6.389952476070363 2.786510847676853 Z" fill="#3361e1" transform="matrix(1,0,0,1,0,0)" fill-rule="evenodd"/>
      </g>
      <g clip-path="url(#SvgjsClipPath183468798e685-4dbc-4ef8-a40a-44acc2ba6681)">
        <path d=" M -0.9042895826639779 3.028642959565704 C -0.7067174761832424 2.685075670880112 -0.8241666886761481 2.2464283946566104 -1.166980081411329 2.0475510533745567 C -1.5105473700969432 1.8499789468938221 -1.949194646320434 1.9674281593867269 -2.148071987602475 2.3102415521219077 C -2.345644094083198 2.653808840807522 -2.2281948815902934 3.092456117031001 -1.885381488855101 3.291333458313054 C -1.7205028421246187 3.386847184808593 -1.52439482230404 3.4128290869009366 -1.3403323471388369 3.363545769918388 C -1.1562698719736453 3.3142624529358633 -0.9993822144149194 3.193764828145926 -0.9042895826639548 3.028642959565727 Z" fill="#000000" transform="matrix(1,0,0,1,0,0)" fill-rule="evenodd"/>
      </g>
      <g clip-path="url(#SvgjsClipPath183468798e685-4dbc-4ef8-a40a-44acc2ba6681)">
        <path d=" M -3.263935540977032 1.6649366312860447 C -3.218591491160094 1.588492263237991 -3.2058736579153155 1.4970313005247462 -3.228641246924944 1.4111158702997306 C -3.2514088359345727 1.325200440074716 -3.3077512252855907 1.2520404363493371 -3.385001596921457 1.2080835899863125 C -3.4614459649694878 1.1627395401693628 -3.552906927682744 1.150021706924596 -3.6388223579077597 1.172789295934213 C -3.724737788132786 1.1955568849438531 -3.797897791858153 1.2518992742948596 -3.8418546382211787 1.3291496459307375 C -3.886882679980486 1.4056691228857767 -3.899423120717657 1.4970236174232587 -3.8766801422791444 1.5828461775685785 C -3.853937163840632 1.6686687377138982 -3.7978016125395104 1.7418240943612249 -3.7207885822767643 1.7860026872304466 C -3.6442691053217136 1.8310307289897665 -3.552914610784243 1.8435711697269372 -3.4670920506389233 1.8208281912884248 C -3.3812694904935805 1.7980852128499123 -3.3081141338462654 1.74194966154879 -3.263935540977032 1.6649366312860447 Z" fill="#51a8db" transform="matrix(1,0,0,1,0,0)" fill-rule="evenodd"/>
      </g>
      <g clip-path="url(#SvgjsClipPath183468798e685-4dbc-4ef8-a40a-44acc2ba6681)">
        <path d=" M -2.680305780716634 2.786510847676853 C -2.475672186685679 2.5817990493814396 -2.475672186685679 2.249978586463464 -2.680305780716634 2.0452667881680515 C -2.7786600262839425 1.946646551161158 -2.9122167574306124 1.8912198639006679 -3.051498876772656 1.8912198639006679 C -3.1907809961146985 1.8912198639006679 -3.3243377272613683 1.946646551161158 -3.422691972828688 2.0452667881680515 C -3.5212431476569455 2.1434257396528196 -3.576641712184105 2.2767934771787175 -3.576641712184105 2.415888817922464 C -3.576641712184105 2.554984158666186 -3.5212431476569455 2.688351896192085 -3.422691972828688 2.786510847676853 C -3.3243377272613683 2.8851310846837697 -3.1907809961146985 2.9405577719442366 -3.051498876772656 2.9405577719442366 C -2.9122167574306124 2.9405577719442366 -2.7786600262839425 2.8851310846837697 -2.680305780716634 2.786510847676853 Z" fill="#000000" transform="matrix(1,0,0,1,0,0)" fill-rule="evenodd"/>
      </g>
      <g clip-path="url(#SvgjsClipPath183468798e685-4dbc-4ef8-a40a-44acc2ba6681)">
        <path d=" M -2.4393158014310243 -2.699152045729544 C -2.7827945807535555 -2.897398383594944 -3.2219439359900903 -2.779814737838953 -3.4204077076221715 -2.4364615469821933 C -3.6184626245477336 -2.0926837216200376 -3.500342889344518 -1.6534419357345431 -3.156575076271591 -1.4553696407910697 C -2.9916605961775575 -1.360313480736371 -2.795724854974149 -1.3347084712574218 -2.6119215774794506 -1.3841939690444491 C -2.4281182999847415 -1.4336794668314996 -2.2715231464892964 -1.5541966402678355 -2.1766253026836857 -1.7192022721416382 C -2.0811646485626136 -1.8839068176087899 -2.055212943697666 -2.079842571498209 -2.104503958073076 -2.2637194859943266 C -2.1537949724484866 -2.4475964004904207 -2.2742716245551913 -2.6042797976158485 -2.439315801431013 -2.699152045729544 Z" fill="#51a8db" transform="matrix(1,0,0,1,0,0)" fill-rule="evenodd"/>
      </g>
      <g clip-path="url(#SvgjsClipPath183468798e685-4dbc-4ef8-a40a-44acc2ba6681)">
        <path d=" M -3.803022129710695 -0.33836395481322556 C -3.879680817611839 -0.3832980640204222 -3.971140381354199 -0.3956647434813507 -4.056979622358432 -0.37270274651271373 C -4.142818863362653 -0.34974074954409984 -4.215889116858645 -0.2933623439719173 -4.259875171010427 -0.2161557662655591 C -4.305219220827365 -0.13971139821750578 -4.317937054072144 -0.048250435504261 -4.295169465062515 0.03766499472075413 C -4.272401876052887 0.1235804249457697 -4.216059486701869 0.1967404286711485 -4.138809115066025 0.24069727503417315 C -4.062289638110963 0.285725316793493 -3.970935143573481 0.2982657575306402 -3.8851125834281612 0.27552277909212775 C -3.79929002328283 0.2527798006536388 -3.7261346666355033 0.19664424935249336 -3.6819560737662815 0.11963121908974772 C -3.6365610789310203 0.0430118901561638 -3.6238144129627905 -0.04862037814163367 -3.6465740393345882 -0.1347204741330823 C -3.669333665706409 -0.22082057012455403 -3.7256953639926467 -0.29418479201095415 -3.803022129710695 -0.33836395481322556 Z" fill="#51a8db" transform="matrix(1,0,0,1,0,0)" fill-rule="evenodd"/>
      </g>
      <g clip-path="url(#SvgjsClipPath183468798e685-4dbc-4ef8-a40a-44acc2ba6681)">
        <path d=" M -2.680305780716634 -0.921993715073635 C -2.7786600262839425 -1.020613952080529 -2.9122167574306124 -1.0760406393410187 -3.051498876772656 -1.0760406393410187 C -3.1907809961146985 -1.0760406393410187 -3.3243377272613683 -1.020613952080529 -3.422691972828688 -0.921993715073635 C -3.5212431476569455 -0.8238347635888665 -3.576641712184105 -0.6904670260629686 -3.576641712184105 -0.5513716853192228 C -3.576641712184105 -0.4122763445755 -3.5212431476569455 -0.2789086070496021 -3.422691972828688 -0.18074965556483358 C -3.2173295644016484 0.023388216204136558 -2.8856681891436624 0.023388216204136558 -2.680305780716634 -0.18074965556483358 C -2.475672186685679 -0.38546145386024655 -2.475672186685679 -0.7172819167782221 -2.680305780716634 -0.921993715073635 Z" fill="#51a8db" transform="matrix(1,0,0,1,0,0)" fill-rule="evenodd"/>
      </g>
      <g clip-path="url(#SvgjsClipPath183468798e685-4dbc-4ef8-a40a-44acc2ba6681)">
        <path d=" M -0.48512691727147583 -0.15333847308684145 C -0.5882122713133686 -0.536017580169903 -0.981728064758669 -0.7629279857409492 -1.3645690217734447 -0.6604453489295481 C -1.5486464685487284 -0.6117096310321548 -1.7057339286561444 -0.49166722285608966 -1.801107328453127 -0.32685341511704813 C -1.8964807282501202 -0.16203960737798306 -1.922285684723831 0.03397252006596263 -1.8728180302193689 0.21785462296916824 C -1.7702390300037996 0.6009960134617192 -1.376563557433026 0.8285097605967953 -0.9933759257174124 0.7261036314151159 C -0.6102345352248602 0.6235246311995342 -0.3827207880897969 0.229849158628749 -0.48512691727147583 -0.15333847308686455 Z" fill="#51a8db" transform="matrix(1,0,0,1,0,0)" fill-rule="evenodd"/>
      </g>
      <g clip-path="url(#SvgjsClipPath183468798e685-4dbc-4ef8-a40a-44acc2ba6681)">
        <path d=" M -3.1200268329676133 0.5524994757212109 C -3.1693829599454055 0.3778268960954465 -3.350514070469285 0.2757812000256501 -3.525483907121119 0.3240729550713448 C -3.6997411119502344 0.37395616884549776 -3.801536144918975 0.5546423523650064 -3.753910427770985 0.7295300292248621 C -3.704554300793193 0.9042026088506265 -3.523423190269324 1.0062483049203994 -3.3484533536174794 0.9579565498747282 C -3.1737807739917034 0.908600422896936 -3.0717350779219066 0.7274693123730671 -3.1200268329676017 0.552499475721234 Z" fill="#51a8db" transform="matrix(1,0,0,1,0,0)" fill-rule="evenodd"/>
      </g>
      <g clip-path="url(#SvgjsClipPath183468798e685-4dbc-4ef8-a40a-44acc2ba6681)">
        <path d=" M -1.9127926713331052 0.9316874999999998 C -1.913420835413575 0.6424189632674766 -2.147762999491973 0.40807679918905526 -2.437031536224519 0.40744863510856266 C -2.7267460030549486 0.40744795052725724 -2.9617827196617013 0.6419737177500879 -2.9624125337192213 0.9316874999999998 C -2.9624125293954995 1.2218474205959717 -2.72719144116296 1.4570685018183882 -2.4370315283957655 1.4570684974946548 C -2.1473177539746304 1.4564386834371463 -1.9127919867517882 1.2214019668304061 -1.9127926713331052 0.9316874999999998 Z" fill="#51a8db" transform="matrix(1,0,0,1,0,0)" fill-rule="evenodd"/>
      </g>
      <g clip-path="url(#SvgjsClipPath183468798e685-4dbc-4ef8-a40a-44acc2ba6681)">
        <path d=" M -5.621297234083581 -3.118314711122046 C -6.003976341166642 -3.015229357080164 -6.2308867467376885 -2.6217135636348647 -6.128404109926299 -2.2388726066200886 C -6.079165056689562 -2.0549198050501665 -5.958795789891768 -1.8980981063128055 -5.793827735116238 -1.8029736695331575 C -5.628859680340696 -1.7078492327534864 -5.432835414062178 -1.6822310241065752 -5.248962005424307 -1.731765730777405 C -5.065095417173344 -1.7807487613725843 -4.908282848429092 -1.9008937232205367 -4.813140300493663 -2.065678901964553 C -4.717997752558233 -2.23046408070857 -4.692348707002161 -2.426339347232141 -4.741855129581612 -2.6100657026761214 C -4.844434129797206 -2.993207093168649 -5.238109602367979 -3.2207208403037253 -5.621297234083604 -3.118314711122046 Z" fill="#51a8db" transform="matrix(1,0,0,1,0,0)" fill-rule="evenodd"/>
      </g>
      <g clip-path="url(#SvgjsClipPath183468798e685-4dbc-4ef8-a40a-44acc2ba6681)">
        <path d=" M -4.915459285275529 -0.4845569280291384 C -5.08946194131326 -0.43364231656767105 -5.190918562510502 -0.2530495308365812 -5.143885805925383 -0.07795772127240319 C -5.09348267533329 0.09588832269874636 -4.913234137904016 0.19743679448991092 -4.738428731771878 0.15046879937746294 C -4.561814226870262 0.10305719996137741 -4.456678070089483 -0.07812404109285653 -4.503149415502519 -0.2549882747760308 C -4.527338205720462 -0.34013528208125976 -4.584384284169777 -0.41217348704275647 -4.66172087398729 -0.45523347195500685 C -4.73905746380478 -0.4982934568672337 -4.830339851280237 -0.5088425694981868 -4.91545928527554 -0.4845569280291384 Z" fill="#51a8db" transform="matrix(1,0,0,1,0,0)" fill-rule="evenodd"/>
      </g>
      <g clip-path="url(#SvgjsClipPath183468798e685-4dbc-4ef8-a40a-44acc2ba6681)">
        <path d=" M -4.5351291283935105 -1.690648957060405 C -4.674363703067407 -1.6909523010806784 -4.807999513806655 -1.635854094165884 -4.906560532646137 -1.537507338410848 C -5.005121551485596 -1.4391605826558123 -5.060510456328685 -1.3056449972829896 -5.060510125888177 -1.1664100921689908 C -5.060510456322893 -1.027175187033194 -5.005121551474268 -0.893659601662665 -4.90656053263071 -0.7953128459117291 C -4.80799951378714 -0.6969660901607702 -4.674363703045609 -0.6418678832515585 -4.535129128371724 -0.6421712272775997 C -4.396092336809548 -0.6421712272775535 -4.262750130230678 -0.697403377679271 -4.16443627206724 -0.7957172358427207 C -4.06612241390379 -0.8940310940061473 -4.0108902635020725 -1.0273733005850163 -4.0108902635020725 -1.1664100921689908 C -4.010890261430258 -1.305446875941179 -4.066122409845035 -1.4387890833430572 -4.164436266543485 -1.5371029429714949 C -4.262750123241947 -1.6354168025999325 -4.396092328997761 -1.690648954988602 -4.535129120581748 -1.690648957060405 Z" fill="#51a8db" transform="matrix(1,0,0,1,0,0)" fill-rule="evenodd"/>
      </g>
      <g clip-path="url(#SvgjsClipPath183468798e685-4dbc-4ef8-a40a-44acc2ba6681)">
        <path d=" M -8.167110806726283 -1.1641258269624857 C -8.262571460847344 -0.999421281495334 -8.288523165712292 -0.8034855276059152 -8.239232151336893 -0.6196086131097975 C -8.18994113696147 -0.4357316986137034 -8.069464484854779 -0.27904830148827564 -7.904420307978956 -0.18417605337457976 C -7.73954166124845 -0.08866232687904096 -7.543433641427871 -0.06268042478669766 -7.359371166262668 -0.11196374176924628 C -7.175308691097477 -0.16124705875177137 -7.0184210335387505 -0.28174468354170834 -6.923328401787786 -0.4468665521219073 C -6.725858400751813 -0.790090332745963 -6.843349985815236 -1.2283850283303885 -7.186018900535114 -1.4268163257098365 C -7.35089754726562 -1.522330052205352 -7.547005567086199 -1.5483119542977186 -7.731068042251402 -1.4990286373151702 C -7.915130517416593 -1.449745320332622 -8.07201817497532 -1.3292476955426848 -8.167110806726283 -1.1641258269624857 Z" fill="#51a8db" transform="matrix(1,0,0,1,0,0)" fill-rule="evenodd"/>
      </g>
      <g clip-path="url(#SvgjsClipPath183468798e685-4dbc-4ef8-a40a-44acc2ba6681)">
        <path d=" M -5.805180583206724 0.19843836871393217 C -5.850208624966033 0.2749578456689945 -5.862749065703191 0.3663123402064534 -5.84000608726469 0.45213490035179627 C -5.817263108826179 0.537957460497116 -5.761127557525056 0.6111128171444427 -5.68411452726231 0.6552914100136644 C -5.607670159214269 0.7006354598306141 -5.516209196501013 0.713353293075381 -5.430293766276009 0.6905857040657644 C -5.344378336050982 0.6678181150561242 -5.271218332325603 0.6114757257051173 -5.227261485962578 0.5342253540692625 C -5.18223344420327 0.45770587711419974 -5.1696930034661115 0.36635138257674127 -5.1924359819046115 0.28052882243139843 C -5.215178960343124 0.19470626228607824 -5.271314511644246 0.12155090563875204 -5.348327541907004 0.07737231276952983 C -5.424771909955034 0.032028262952580544 -5.51623287266829 0.019310429707813714 -5.602148302893306 0.04207801871743033 C -5.688063733118332 0.06484560772707049 -5.7612237368437 0.12118799707807737 -5.805180583206724 0.19843836871393217 Z" fill="#3361e1" transform="matrix(1,0,0,1,0,0)" fill-rule="evenodd"/>
      </g>
      <g clip-path="url(#SvgjsClipPath183468798e685-4dbc-4ef8-a40a-44acc2ba6681)">
        <path d=" M -6.389952476070363 -0.921993715073635 C -6.4885036508986325 -0.8238347635888665 -6.543902215425792 -0.6904670260629686 -6.543902215425792 -0.5513716853192228 C -6.543902215425792 -0.4122763445755 -6.4885036508986325 -0.2789086070496021 -6.389952476070363 -0.18074965556483358 C -6.18524067777495 0.0238839384661218 -5.853420214856986 0.0238839384661218 -5.648708416561574 -0.18074965556483358 C -5.444074822530618 -0.38546145386024655 -5.444074822530618 -0.7172819167782221 -5.648708416561574 -0.921993715073635 C -5.746867368046329 -1.0205448899019038 -5.880235105572228 -1.0759434544290523 -6.0193304463159745 -1.0759434544290523 C -6.158425787059708 -1.0759434544290523 -6.291793524585606 -1.0205448899019038 -6.389952476070363 -0.921993715073635 Z" fill="#51a8db" transform="matrix(1,0,0,1,0,0)" fill-rule="evenodd"/>
      </g>
    </g>
    <g>
      <path d=" M 0.2805 1.005 L 0.2805 0.9809999999999999 L 0.432 0.9209999999999999 L 0.432 0.09749999999999992 L 0.195 0.09749999999999992 L 0.0885 0.32399999999999984 L 0.0645 0.32399999999999984 L 0.0645 0.014999999999999902 L 0.9555 0.014999999999999902 L 0.9555 0.32399999999999984 L 0.9315 0.32399999999999984 L 0.8265 0.09749999999999992 L 0.588 0.09749999999999992 L 0.588 0.9209999999999999 L 0.741 0.9809999999999999 L 0.741 1.005 L 0.2805 1.005 M 1.322989013671875 1.0199999999999998 Q 1.247989013671875 1.0199999999999998 1.193989013671875 1.00125 Q 1.139989013671875 0.9824999999999999 1.115989013671875 0.9464999999999999 Q 1.103989013671875 0.9299999999999999 1.103989013671875 0.9164999999999999 Q 1.103989013671875 0.8969999999999999 1.130989013671875 0.8759999999999999 L 1.189489013671875 0.8309999999999998 L 1.205989013671875 0.8309999999999998 L 1.220989013671875 0.8594999999999999 Q 1.243489013671875 0.8969999999999999 1.281739013671875 0.9224999999999999 Q 1.319989013671875 0.9479999999999998 1.3799890136718749 0.9479999999999998 Q 1.466989013671875 0.9479999999999998 1.526239013671875 0.8864999999999998 Q 1.5854890136718751 0.825 1.5854890136718751 0.7199999999999999 Q 1.5854890136718751 0.6569999999999998 1.559239013671875 0.6037499999999999 Q 1.532989013671875 0.5504999999999999 1.469239013671875 0.5182499999999999 Q 1.405489013671875 0.4859999999999999 1.294489013671875 0.4859999999999999 Q 1.232989013671875 0.4859999999999999 1.150489013671875 0.49949999999999983 L 1.150489013671875 0.014999999999999902 L 1.640989013671875 0.014999999999999902 L 1.640989013671875 0.13949999999999985 L 1.223989013671875 0.13949999999999985 L 1.223989013671875 0.3569999999999999 Q 1.271989013671875 0.35399999999999987 1.318489013671875 0.35399999999999987 Q 1.463989013671875 0.35399999999999987 1.5517390136718752 0.3982499999999999 Q 1.639489013671875 0.4424999999999999 1.678489013671875 0.5122499999999999 Q 1.717489013671875 0.5819999999999999 1.717489013671875 0.6584999999999999 Q 1.717489013671875 0.7679999999999999 1.666489013671875 0.8497499999999999 Q 1.615489013671875 0.9314999999999999 1.526239013671875 0.9757499999999999 Q 1.436989013671875 1.0199999999999998 1.322989013671875 1.0199999999999998 M 2.44645458984375 1.005 L 2.44645458984375 0.9809999999999999 L 2.59795458984375 0.9209999999999999 L 2.59795458984375 0.09749999999999992 L 2.36095458984375 0.09749999999999992 L 2.25445458984375 0.32399999999999984 L 2.23045458984375 0.32399999999999984 L 2.23045458984375 0.014999999999999902 L 3.12145458984375 0.014999999999999902 L 3.12145458984375 0.32399999999999984 L 3.0974545898437498 0.32399999999999984 L 2.9924545898437502 0.09749999999999992 L 2.75395458984375 0.09749999999999992 L 2.75395458984375 0.9209999999999999 L 2.90695458984375 0.9809999999999999 L 2.90695458984375 1.005 L 2.44645458984375 1.005 M 3.275943603515625 1.005 L 3.275943603515625 0.9809999999999999 L 3.397443603515625 0.9209999999999999 L 3.397443603515625 0.09899999999999987 L 3.275943603515625 0.038999999999999924 L 3.275943603515625 0.014999999999999902 L 4.028943603515625 0.014999999999999902 L 4.028943603515625 0.2729999999999999 L 4.004943603515625 0.2729999999999999 L 3.907443603515625 0.09749999999999992 L 3.5549436035156248 0.09749999999999992 L 3.5549436035156248 0.45299999999999985 L 3.803943603515625 0.45299999999999985 L 3.880443603515625 0.32699999999999985 L 3.904443603515625 0.32699999999999985 L 3.904443603515625 0.6584999999999999 L 3.880443603515625 0.6584999999999999 L 3.803943603515625 0.5354999999999999 L 3.5549436035156248 0.5354999999999999 L 3.5549436035156248 0.9224999999999999 L 3.947943603515625 0.9224999999999999 L 4.046943603515625 0.7244999999999999 L 4.070943603515625 0.7244999999999999 L 4.070943603515625 1.005 L 3.275943603515625 1.005 M 4.7744384765625 1.0199999999999998 Q 4.6199384765625 1.0199999999999998 4.5074384765625 0.9569999999999999 Q 4.3949384765625 0.8939999999999999 4.3334384765625 0.7844999999999999 Q 4.2719384765625 0.6749999999999998 4.2719384765625 0.5354999999999999 Q 4.2719384765625 0.4274999999999999 4.3139384765625 0.3314999999999999 Q 4.3559384765625 0.23549999999999993 4.4286884765625 0.16049999999999986 Q 4.5014384765625 0.08549999999999991 4.5959384765625 0.042749999999999844 Q 4.6904384765625 -2.220446049250313e-16 4.7969384765625005 -2.220446049250313e-16 Q 4.8734384765625 -2.220446049250313e-16 4.9259384765625 0.009749999999999925 Q 4.9784384765625 0.01949999999999985 5.0196884765625 0.03524999999999989 Q 5.0609384765625 0.05099999999999982 5.1029384765625 0.07199999999999984 L 5.1119384765625 0.33899999999999986 L 5.0849384765625 0.33899999999999986 L 4.9814384765625 0.1439999999999999 Q 4.9304384765625 0.10799999999999987 4.8891884765625 0.09149999999999991 Q 4.8479384765625 0.07499999999999984 4.7969384765625005 0.07499999999999984 Q 4.6934384765625 0.07499999999999984 4.6109384765625 0.1289999999999999 Q 4.5284384765625 0.18299999999999983 4.4811884765625 0.2782499999999999 Q 4.4339384765625 0.37349999999999983 4.4339384765625 0.4979999999999999 Q 4.4339384765625 0.6375 4.4796884765625 0.73725 Q 4.5254384765625 0.8369999999999999 4.6034384765625 0.8894999999999998 Q 4.6814384765625 0.942 4.7759384765625 0.942 Q 4.8539384765625 0.942 4.9071884765625 0.9209999999999999 Q 4.9604384765625 0.8999999999999999 5.0024384765625 0.8714999999999999 L 5.1029384765625 0.7034999999999999 L 5.1284384765625 0.7034999999999999 L 5.1104384765625 0.9449999999999998 Q 5.0444384765625 0.9779999999999999 4.9694384765625 0.9989999999999999 Q 4.8944384765625 1.0199999999999998 4.7744384765625 1.0199999999999998 M 5.347415771484375 1.005 L 5.347415771484375 0.9809999999999999 L 5.468915771484375 0.9209999999999999 L 5.468915771484375 0.09899999999999987 L 5.347415771484375 0.038999999999999924 L 5.347415771484375 0.014999999999999902 L 5.744915771484375 0.014999999999999902 L 5.744915771484375 0.038999999999999924 L 5.626415771484375 0.09899999999999987 L 5.626415771484375 0.45299999999999985 L 6.1139157714843755 0.45299999999999985 L 6.1139157714843755 0.09899999999999987 L 5.993915771484375 0.038999999999999924 L 5.993915771484375 0.014999999999999902 L 6.391415771484375 0.014999999999999902 L 6.391415771484375 0.038999999999999924 L 6.269915771484375 0.09899999999999987 L 6.269915771484375 0.9209999999999999 L 6.391415771484375 0.9809999999999999 L 6.391415771484375 1.005 L 5.993915771484375 1.005 L 5.993915771484375 0.9809999999999999 L 6.1139157714843755 0.9209999999999999 L 6.1139157714843755 0.5354999999999999 L 5.626415771484375 0.5354999999999999 L 5.626415771484375 0.9209999999999999 L 5.744915771484375 0.9809999999999999 L 5.744915771484375 1.005 L 5.347415771484375 1.005 M 6.56538427734375 1.005 L 6.56538427734375 0.9809999999999999 L 6.68688427734375 0.9209999999999999 L 6.68688427734375 0.10199999999999987 L 6.56688427734375 0.038999999999999924 L 6.56688427734375 0.014999999999999902 L 6.80238427734375 0.014999999999999902 L 7.37688427734375 0.7214999999999998 L 7.37688427734375 0.09749999999999992 L 7.22238427734375 0.038999999999999924 L 7.22238427734375 0.014999999999999902 L 7.60188427734375 0.014999999999999902 L 7.60188427734375 0.038999999999999924 L 7.48188427734375 0.09749999999999992 L 7.48188427734375 1.0125 L 7.41738427734375 1.0125 L 6.79188427734375 0.24449999999999983 L 6.79188427734375 0.9224999999999999 L 6.94638427734375 0.9809999999999999 L 6.94638427734375 1.005 L 6.56538427734375 1.005 M 8.28735205078125 1.0199999999999998 Q 8.17935205078125 1.0199999999999998 8.08710205078125 0.9817499999999999 Q 7.99485205078125 0.9434999999999999 7.92660205078125 0.8752499999999999 Q 7.85835205078125 0.8069999999999999 7.82085205078125 0.714 Q 7.78335205078125 0.6209999999999999 7.78335205078125 0.5099999999999999 Q 7.78335205078125 0.3989999999999999 7.82085205078125 0.3059999999999998 Q 7.85835205078125 0.21299999999999986 7.92660205078125 0.14474999999999982 Q 7.99485205078125 0.0764999999999999 8.08710205078125 0.038249999999999895 Q 8.17935205078125 -2.220446049250313e-16 8.28735205078125 -2.220446049250313e-16 Q 8.39535205078125 -2.220446049250313e-16 8.48760205078125 0.038249999999999895 Q 8.57985205078125 0.0764999999999999 8.648102050781251 0.14474999999999982 Q 8.71635205078125 0.21299999999999986 8.75460205078125 0.3059999999999998 Q 8.79285205078125 0.3989999999999999 8.79285205078125 0.5099999999999999 Q 8.79285205078125 0.6209999999999999 8.75460205078125 0.714 Q 8.71635205078125 0.8069999999999999 8.648102050781251 0.8752499999999999 Q 8.57985205078125 0.9434999999999999 8.48760205078125 0.9817499999999999 Q 8.39535205078125 1.0199999999999998 8.28735205078125 1.0199999999999998 M 8.31735205078125 0.9449999999999998 Q 8.40885205078125 0.9449999999999998 8.47785205078125 0.8969999999999999 Q 8.54685205078125 0.8489999999999999 8.58585205078125 0.7619999999999999 Q 8.62485205078125 0.6749999999999998 8.62485205078125 0.5564999999999999 Q 8.62485205078125 0.4109999999999999 8.57685205078125 0.3022499999999999 Q 8.52885205078125 0.1934999999999999 8.44635205078125 0.13349999999999984 Q 8.36385205078125 0.0734999999999999 8.26335205078125 0.0734999999999999 Q 8.17185205078125 0.0734999999999999 8.10135205078125 0.12074999999999991 Q 8.03085205078125 0.16799999999999993 7.99110205078125 0.2549999999999999 Q 7.95135205078125 0.34199999999999986 7.95135205078125 0.4604999999999999 Q 7.95135205078125 0.6059999999999999 8.00010205078125 0.7154999999999999 Q 8.04885205078125 0.825 8.13210205078125 0.8849999999999999 Q 8.21535205078125 0.9449999999999998 8.31735205078125 0.9449999999999998 M 8.98031982421875 1.005 L 8.98031982421875 0.9809999999999999 L 9.10181982421875 0.9209999999999999 L 9.10181982421875 0.09899999999999987 L 8.98031982421875 0.038999999999999924 L 8.98031982421875 0.014999999999999902 L 9.39581982421875 0.014999999999999902 L 9.39581982421875 0.038999999999999924 L 9.25931982421875 0.09899999999999987 L 9.25931982421875 0.9224999999999999 L 9.61481982421875 0.9224999999999999 L 9.72131982421875 0.6644999999999999 L 9.74531982421875 0.6644999999999999 L 9.74531982421875 1.005 L 8.98031982421875 1.005 M 10.44579931640625 1.0199999999999998 Q 10.33779931640625 1.0199999999999998 10.24554931640625 0.9817499999999999 Q 10.15329931640625 0.9434999999999999 10.08504931640625 0.8752499999999999 Q 10.01679931640625 0.8069999999999999 9.97929931640625 0.714 Q 9.94179931640625 0.6209999999999999 9.94179931640625 0.5099999999999999 Q 9.94179931640625 0.3989999999999999 9.97929931640625 0.3059999999999998 Q 10.01679931640625 0.21299999999999986 10.08504931640625 0.14474999999999982 Q 10.15329931640625 0.0764999999999999 10.24554931640625 0.038249999999999895 Q 10.33779931640625 -2.220446049250313e-16 10.44579931640625 -2.220446049250313e-16 Q 10.55379931640625 -2.220446049250313e-16 10.64604931640625 0.038249999999999895 Q 10.73829931640625 0.0764999999999999 10.806549316406251 0.14474999999999982 Q 10.87479931640625 0.21299999999999986 10.91304931640625 0.3059999999999998 Q 10.95129931640625 0.3989999999999999 10.95129931640625 0.5099999999999999 Q 10.95129931640625 0.6209999999999999 10.91304931640625 0.714 Q 10.87479931640625 0.8069999999999999 10.806549316406251 0.8752499999999999 Q 10.73829931640625 0.9434999999999999 10.64604931640625 0.9817499999999999 Q 10.55379931640625 1.0199999999999998 10.44579931640625 1.0199999999999998 M 10.47579931640625 0.9449999999999998 Q 10.56729931640625 0.9449999999999998 10.63629931640625 0.8969999999999999 Q 10.70529931640625 0.8489999999999999 10.74429931640625 0.7619999999999999 Q 10.78329931640625 0.6749999999999998 10.78329931640625 0.5564999999999999 Q 10.78329931640625 0.4109999999999999 10.73529931640625 0.3022499999999999 Q 10.68729931640625 0.1934999999999999 10.60479931640625 0.13349999999999984 Q 10.52229931640625 0.0734999999999999 10.42179931640625 0.0734999999999999 Q 10.33029931640625 0.0734999999999999 10.25979931640625 0.12074999999999991 Q 10.18929931640625 0.16799999999999993 10.149549316406251 0.2549999999999999 Q 10.10979931640625 0.34199999999999986 10.10979931640625 0.4604999999999999 Q 10.10979931640625 0.6059999999999999 10.15854931640625 0.7154999999999999 Q 10.20729931640625 0.825 10.29054931640625 0.8849999999999999 Q 10.37379931640625 0.9449999999999998 10.47579931640625 0.9449999999999998 M 11.671232666015625 1.0199999999999998 Q 11.563232666015624 1.0199999999999998 11.470982666015624 0.9839999999999999 Q 11.378732666015624 0.9479999999999998 11.311232666015625 0.8827499999999999 Q 11.243732666015624 0.8174999999999999 11.205482666015625 0.7289999999999999 Q 11.167232666015625 0.6404999999999998 11.167232666015625 0.5354999999999999 Q 11.167232666015625 0.41999999999999993 11.209982666015625 0.3224999999999999 Q 11.252732666015625 0.22499999999999987 11.327732666015624 0.15224999999999989 Q 11.402732666015625 0.0794999999999999 11.500232666015625 0.03974999999999984 Q 11.597732666015625 -2.220446049250313e-16 11.708732666015624 -2.220446049250313e-16 Q 11.788232666015626 -2.220446049250313e-16 11.843732666015626 0.008999999999999897 Q 11.899232666015624 0.017999999999999905 11.943482666015624 0.034499999999999864 Q 11.987732666015624 0.05099999999999982 12.029732666015626 0.07199999999999984 L 12.038732666015624 0.32399999999999984 L 12.014732666015625 0.32399999999999984 L 11.906732666015625 0.1439999999999999 Q 11.848232666015624 0.10499999999999987 11.806232666015624 0.08999999999999986 Q 11.764232666015625 0.07499999999999984 11.708732666015624 0.07499999999999984 Q 11.597732666015625 0.07499999999999984 11.510732666015626 0.1259999999999999 Q 11.423732666015624 0.17699999999999982 11.374232666015626 0.2669999999999999 Q 11.324732666015626 0.3569999999999999 11.324732666015626 0.4724999999999999 Q 11.324732666015626 0.6179999999999999 11.377232666015624 0.7214999999999998 Q 11.429732666015624 0.825 11.517482666015624 0.8797499999999999 Q 11.605232666015626 0.9344999999999999 11.714732666015625 0.9344999999999999 Q 11.758232666015624 0.9344999999999999 11.800982666015624 0.9292499999999999 Q 11.843732666015626 0.9239999999999999 11.887232666015626 0.9089999999999999 L 11.887232666015626 0.6524999999999999 L 11.753732666015624 0.5909999999999999 L 11.753732666015624 0.567 L 12.149732666015625 0.567 L 12.149732666015625 0.5909999999999999 L 12.044732666015625 0.6569999999999998 L 12.044732666015625 0.8939999999999999 Q 11.999732666015625 0.9329999999999998 11.936732666015626 0.9607499999999999 Q 11.873732666015625 0.9884999999999999 11.804732666015624 1.0042499999999999 Q 11.735732666015625 1.0199999999999998 11.671232666015625 1.0199999999999998 M 12.313254638671875 1.005 L 12.313254638671875 0.9809999999999999 L 12.436254638671874 0.9209999999999999 L 12.436254638671874 0.09899999999999987 L 12.313254638671875 0.038999999999999924 L 12.313254638671875 0.014999999999999902 L 12.713754638671874 0.014999999999999902 L 12.713754638671874 0.038999999999999924 L 12.592254638671875 0.09899999999999987 L 12.592254638671875 0.9209999999999999 L 12.713754638671874 0.9809999999999999 L 12.713754638671874 1.005 L 12.313254638671875 1.005 M 12.899783935546875 1.005 L 12.899783935546875 0.9809999999999999 L 13.021283935546874 0.9209999999999999 L 13.021283935546874 0.09899999999999987 L 12.899783935546875 0.038999999999999924 L 12.899783935546875 0.014999999999999902 L 13.652783935546875 0.014999999999999902 L 13.652783935546875 0.2729999999999999 L 13.628783935546876 0.2729999999999999 L 13.531283935546876 0.09749999999999992 L 13.178783935546875 0.09749999999999992 L 13.178783935546875 0.45299999999999985 L 13.427783935546875 0.45299999999999985 L 13.504283935546875 0.32699999999999985 L 13.528283935546876 0.32699999999999985 L 13.528283935546876 0.6584999999999999 L 13.504283935546875 0.6584999999999999 L 13.427783935546875 0.5354999999999999 L 13.178783935546875 0.5354999999999999 L 13.178783935546875 0.9224999999999999 L 13.571783935546875 0.9224999999999999 L 13.670783935546876 0.7244999999999999 L 13.694783935546875 0.7244999999999999 L 13.694783935546875 1.005 L 12.899783935546875 1.005 M 14.197278808593751 1.0199999999999998 Q 14.10277880859375 1.0199999999999998 14.03602880859375 1.002 Q 13.96927880859375 0.9839999999999999 13.89877880859375 0.9494999999999999 L 13.88377880859375 0.702 L 13.90777880859375 0.702 L 13.98727880859375 0.8654999999999999 Q 14.03977880859375 0.9089999999999999 14.09077880859375 0.9284999999999999 Q 14.14177880859375 0.9479999999999998 14.19277880859375 0.9479999999999998 Q 14.27977880859375 0.9479999999999998 14.33002880859375 0.9029999999999999 Q 14.38027880859375 0.8579999999999999 14.38027880859375 0.7799999999999999 Q 14.38027880859375 0.7184999999999999 14.35252880859375 0.6817499999999999 Q 14.32477880859375 0.6449999999999999 14.27002880859375 0.6157499999999999 Q 14.21527880859375 0.5864999999999999 14.13577880859375 0.5474999999999999 Q 14.02927880859375 0.49649999999999983 13.97227880859375 0.4402499999999999 Q 13.91527880859375 0.3839999999999999 13.91527880859375 0.2819999999999999 Q 13.91527880859375 0.22799999999999987 13.94152880859375 0.17774999999999985 Q 13.96777880859375 0.12749999999999984 14.01277880859375 0.08774999999999988 Q 14.05777880859375 0.04799999999999982 14.11327880859375 0.02399999999999991 Q 14.16877880859375 -2.220446049250313e-16 14.22877880859375 -2.220446049250313e-16 Q 14.29927880859375 -2.220446049250313e-16 14.36077880859375 0.016499999999999848 Q 14.42227880859375 0.03299999999999992 14.48227880859375 0.06449999999999989 L 14.49727880859375 0.3044999999999999 L 14.47327880859375 0.3044999999999999 L 14.39527880859375 0.1439999999999999 Q 14.34727880859375 0.10649999999999993 14.30827880859375 0.08999999999999986 Q 14.26927880859375 0.0734999999999999 14.21977880859375 0.0734999999999999 Q 14.15527880859375 0.0734999999999999 14.11252880859375 0.11699999999999988 Q 14.06977880859375 0.16049999999999986 14.06977880859375 0.22649999999999992 Q 14.06977880859375 0.29999999999999993 14.11552880859375 0.34199999999999986 Q 14.16127880859375 0.3839999999999999 14.26327880859375 0.43199999999999983 Q 14.35327880859375 0.4754999999999999 14.41252880859375 0.5152499999999999 Q 14.47177880859375 0.5549999999999999 14.50027880859375 0.6044999999999998 Q 14.52877880859375 0.6539999999999999 14.52877880859375 0.7304999999999999 Q 14.52877880859375 0.8009999999999999 14.49877880859375 0.8549999999999999 Q 14.46877880859375 0.9089999999999999 14.41927880859375 0.9457499999999999 Q 14.36977880859375 0.9824999999999999 14.31202880859375 1.00125 Q 14.25427880859375 1.0199999999999998 14.197278808593751 1.0199999999999998 M 15.07480224609375 1.005 L 15.07480224609375 0.9809999999999999 L 15.19630224609375 0.9209999999999999 L 15.19630224609375 0.09899999999999987 L 15.07480224609375 0.038999999999999924 L 15.07480224609375 0.014999999999999902 L 15.49030224609375 0.014999999999999902 L 15.49030224609375 0.038999999999999924 L 15.35380224609375 0.09899999999999987 L 15.35380224609375 0.9224999999999999 L 15.70930224609375 0.9224999999999999 L 15.81580224609375 0.6644999999999999 L 15.83980224609375 0.6644999999999999 L 15.83980224609375 1.005 L 15.07480224609375 1.005 M 16.015323486328125 1.005 L 16.015323486328125 0.9809999999999999 L 16.136823486328126 0.9209999999999999 L 16.136823486328126 0.09899999999999987 L 16.015323486328125 0.038999999999999924 L 16.015323486328125 0.014999999999999902 L 16.430823486328126 0.014999999999999902 L 16.430823486328126 0.038999999999999924 L 16.294323486328125 0.09899999999999987 L 16.294323486328125 0.9224999999999999 L 16.649823486328124 0.9224999999999999 L 16.756323486328125 0.6644999999999999 L 16.780323486328125 0.6644999999999999 L 16.780323486328125 1.005 L 16.015323486328125 1.005 M 17.479302978515626 1.0199999999999998 Q 17.324802978515624 1.0199999999999998 17.212302978515623 0.9569999999999999 Q 17.099802978515626 0.8939999999999999 17.038302978515624 0.7844999999999999 Q 16.976802978515625 0.6749999999999998 16.976802978515625 0.5354999999999999 Q 16.976802978515625 0.4274999999999999 17.018802978515627 0.3314999999999999 Q 17.060802978515625 0.23549999999999993 17.133552978515624 0.16049999999999986 Q 17.206302978515627 0.08549999999999991 17.300802978515627 0.042749999999999844 Q 17.395302978515623 -2.220446049250313e-16 17.501802978515624 -2.220446049250313e-16 Q 17.578302978515627 -2.220446049250313e-16 17.630802978515625 0.009749999999999925 Q 17.683302978515623 0.01949999999999985 17.724552978515625 0.03524999999999989 Q 17.765802978515627 0.05099999999999982 17.807802978515625 0.07199999999999984 L 17.816802978515625 0.33899999999999986 L 17.789802978515624 0.33899999999999986 L 17.686302978515624 0.1439999999999999 Q 17.635302978515625 0.10799999999999987 17.594052978515624 0.09149999999999991 Q 17.552802978515626 0.07499999999999984 17.501802978515624 0.07499999999999984 Q 17.398302978515623 0.07499999999999984 17.315802978515624 0.1289999999999999 Q 17.233302978515624 0.18299999999999983 17.186052978515626 0.2782499999999999 Q 17.138802978515624 0.37349999999999983 17.138802978515624 0.4979999999999999 Q 17.138802978515624 0.6375 17.184552978515626 0.73725 Q 17.230302978515624 0.8369999999999999 17.308302978515623 0.8894999999999998 Q 17.386302978515626 0.942 17.480802978515626 0.942 Q 17.558802978515626 0.942 17.612052978515624 0.9209999999999999 Q 17.665302978515626 0.8999999999999999 17.707302978515624 0.8714999999999999 L 17.807802978515625 0.7034999999999999 L 17.833302978515626 0.7034999999999999 L 17.815302978515625 0.9449999999999998 Q 17.749302978515626 0.9779999999999999 17.674302978515627 0.9989999999999999 Q 17.599302978515624 1.0199999999999998 17.479302978515626 1.0199999999999998" fill="#000000" fill-rule="nonzero"/>
    </g>
    <g>
      <path d=" M 0.171 1.8633749999999996 L 0.171 1.8513749999999995 L 0.23850000000000002 1.8213749999999995 L 0.23850000000000002 1.6323749999999995 L 0.07200000000000001 1.4051249999999995 L 0.02625 1.3803749999999995 L 0.02625 1.3683749999999995 L 0.20775000000000002 1.3683749999999995 L 0.20775000000000002 1.3803749999999995 L 0.153 1.4066249999999996 L 0.153 1.4096249999999997 L 0.28725 1.5918749999999995 L 0.40800000000000003 1.4103749999999995 L 0.40800000000000003 1.4073749999999996 L 0.35325 1.3803749999999995 L 0.35325 1.3683749999999995 L 0.51225 1.3683749999999995 L 0.51225 1.3803749999999995 L 0.46425 1.4051249999999995 L 0.306 1.6316249999999997 L 0.306 1.8213749999999995 L 0.3735 1.8513749999999995 L 0.3735 1.8633749999999996 L 0.171 1.8633749999999996 M 0.8119046630859375 1.8708749999999996 Q 0.7579046630859374 1.8708749999999996 0.7125296630859375 1.8517499999999996 Q 0.6671546630859374 1.8326249999999995 0.6334046630859375 1.7984999999999995 Q 0.5996546630859374 1.7643749999999996 0.5809046630859375 1.7178749999999996 Q 0.5621546630859374 1.6713749999999996 0.5621546630859374 1.6158749999999995 Q 0.5621546630859374 1.5603749999999996 0.5809046630859375 1.5138749999999996 Q 0.5996546630859374 1.4673749999999997 0.6334046630859375 1.4332499999999995 Q 0.6671546630859374 1.3991249999999995 0.7125296630859375 1.3799999999999994 Q 0.7579046630859374 1.3608749999999996 0.8119046630859375 1.3608749999999996 Q 0.8659046630859375 1.3608749999999996 0.9116546630859375 1.3799999999999994 Q 0.9574046630859374 1.3991249999999995 0.9911546630859374 1.4332499999999995 Q 1.0249046630859375 1.4673749999999997 1.0436546630859374 1.5138749999999996 Q 1.0624046630859374 1.5603749999999996 1.0624046630859374 1.6158749999999995 Q 1.0624046630859374 1.6713749999999996 1.0436546630859374 1.7178749999999996 Q 1.0249046630859375 1.7643749999999996 0.9911546630859374 1.7984999999999995 Q 0.9574046630859374 1.8326249999999995 0.9116546630859375 1.8517499999999996 Q 0.8659046630859375 1.8708749999999996 0.8119046630859375 1.8708749999999996 M 0.8276546630859374 1.8333749999999995 Q 0.8756546630859374 1.8333749999999995 0.9120296630859375 1.8093749999999995 Q 0.9484046630859375 1.7853749999999995 0.9690296630859374 1.7418749999999996 Q 0.9896546630859374 1.6983749999999995 0.9896546630859374 1.6391249999999995 Q 0.9896546630859374 1.5663749999999996 0.9641546630859374 1.5119999999999996 Q 0.9386546630859374 1.4576249999999995 0.8955296630859375 1.4276249999999995 Q 0.8524046630859374 1.3976249999999997 0.7991546630859374 1.3976249999999997 Q 0.7511546630859374 1.3976249999999997 0.7140296630859374 1.4212499999999997 Q 0.6769046630859374 1.4448749999999997 0.6559046630859374 1.4883749999999996 Q 0.6349046630859374 1.5318749999999994 0.6349046630859374 1.5911249999999995 Q 0.6349046630859374 1.6638749999999995 0.6607796630859375 1.7186249999999996 Q 0.6866546630859374 1.7733749999999995 0.7301546630859375 1.8033749999999995 Q 0.7736546630859374 1.8333749999999995 0.8276546630859374 1.8333749999999995 M 1.4122774658203123 1.8708749999999996 Q 1.3560274658203124 1.8708749999999996 1.3121524658203123 1.8498749999999995 Q 1.2682774658203124 1.8288749999999996 1.2427774658203123 1.7849999999999995 Q 1.2172774658203123 1.7411249999999996 1.2172774658203123 1.6713749999999996 L 1.2172774658203123 1.4103749999999995 L 1.1572774658203124 1.3803749999999995 L 1.1572774658203124 1.3683749999999995 L 1.3447774658203124 1.3683749999999995 L 1.3447774658203124 1.3803749999999995 L 1.2847774658203124 1.4103749999999995 L 1.2847774658203124 1.6601249999999996 Q 1.2847774658203124 1.7223749999999995 1.3042774658203125 1.7591249999999996 Q 1.3237774658203123 1.7958749999999997 1.3571524658203125 1.8116249999999996 Q 1.3905274658203124 1.8273749999999995 1.4317774658203124 1.8273749999999995 Q 1.4647774658203123 1.8273749999999995 1.4929024658203125 1.8131249999999997 Q 1.5210274658203125 1.7988749999999996 1.5379024658203124 1.7681249999999995 Q 1.5547774658203124 1.7373749999999997 1.5547774658203124 1.6863749999999995 L 1.5547774658203124 1.4088749999999997 L 1.4797774658203124 1.3803749999999995 L 1.4797774658203124 1.3683749999999995 L 1.6665274658203124 1.3683749999999995 L 1.6665274658203124 1.3803749999999995 L 1.6072774658203124 1.4096249999999997 L 1.6072774658203124 1.6713749999999996 Q 1.6072774658203124 1.7411249999999996 1.5817774658203123 1.7849999999999995 Q 1.5562774658203125 1.8288749999999996 1.5124024658203123 1.8498749999999995 Q 1.4685274658203125 1.8708749999999996 1.4122774658203123 1.8708749999999996 M 1.7651682128906248 1.8633749999999996 L 1.7651682128906248 1.8513749999999995 L 1.8251682128906246 1.8213749999999995 L 1.8251682128906246 1.4103749999999995 L 1.7651682128906248 1.3803749999999995 L 1.7651682128906248 1.3683749999999995 L 1.9586682128906248 1.3683749999999995 Q 2.037418212890625 1.3683749999999995 2.082793212890625 1.4009999999999996 Q 2.1281682128906247 1.4336249999999995 2.1281682128906247 1.4906249999999996 Q 2.1281682128906247 1.5326249999999995 2.0996682128906246 1.5659999999999996 Q 2.071168212890625 1.5993749999999995 2.023918212890625 1.6166249999999995 L 2.166418212890625 1.8243749999999996 L 2.2159182128906245 1.8513749999999995 L 2.2159182128906245 1.8633749999999996 L 2.107918212890625 1.8633749999999996 L 1.9624182128906247 1.6361249999999996 L 1.8926682128906247 1.6361249999999996 L 1.8926682128906247 1.8206249999999995 L 1.9489182128906246 1.8513749999999995 L 1.9489182128906246 1.8633749999999996 L 1.7651682128906248 1.8633749999999996 M 1.9414182128906248 1.4096249999999997 L 1.8926682128906247 1.4096249999999997 L 1.8926682128906247 1.5948749999999996 L 1.9459182128906247 1.5948749999999996 Q 1.9931682128906247 1.5948749999999996 2.024293212890625 1.5682499999999995 Q 2.0554182128906247 1.5416249999999996 2.0554182128906247 1.5003749999999996 Q 2.0554182128906247 1.4583749999999995 2.024668212890625 1.4339999999999995 Q 1.9939182128906248 1.4096249999999997 1.9414182128906248 1.4096249999999997 M 2.45067626953125 1.8633749999999996 L 2.45067626953125 1.8513749999999995 L 2.51067626953125 1.8213749999999995 L 2.51067626953125 1.4103749999999995 L 2.45067626953125 1.3803749999999995 L 2.45067626953125 1.3683749999999995 L 2.6456762695312497 1.3683749999999995 Q 2.73417626953125 1.3683749999999995 2.7878012695312497 1.4006249999999996 Q 2.84142626953125 1.4328749999999997 2.84142626953125 1.5026249999999997 Q 2.84142626953125 1.5438749999999994 2.81330126953125 1.5757499999999995 Q 2.7851762695312496 1.6076249999999996 2.7368012695312496 1.6263749999999995 Q 2.68842626953125 1.6451249999999995 2.62767626953125 1.6451249999999995 L 2.57817626953125 1.6451249999999995 L 2.57817626953125 1.8213749999999995 L 2.6456762695312497 1.8513749999999995 L 2.6456762695312497 1.8633749999999996 L 2.45067626953125 1.8633749999999996 M 2.57817626953125 1.4096249999999997 L 2.57817626953125 1.6038749999999995 L 2.6419262695312495 1.6038749999999995 Q 2.70117626953125 1.6038749999999995 2.73492626953125 1.5772499999999996 Q 2.76867626953125 1.5506249999999995 2.76867626953125 1.5086249999999994 Q 2.76867626953125 1.4561249999999997 2.73455126953125 1.4328749999999997 Q 2.70042626953125 1.4096249999999997 2.63667626953125 1.4096249999999997 L 2.57817626953125 1.4096249999999997 M 2.846288818359375 1.8633749999999996 L 2.846288818359375 1.8513749999999995 L 2.894288818359375 1.8266249999999995 L 3.0862888183593746 1.3646249999999995 L 3.120038818359375 1.3646249999999995 L 3.3090388183593746 1.8243749999999996 L 3.3592888183593748 1.8513749999999995 L 3.3592888183593748 1.8633749999999996 L 3.173288818359375 1.8633749999999996 L 3.173288818359375 1.8513749999999995 L 3.2392888183593747 1.8258749999999995 L 3.1830388183593747 1.6871249999999995 L 3.000788818359375 1.6871249999999995 L 2.9452888183593746 1.8258749999999995 L 3.008288818359375 1.8513749999999995 L 3.008288818359375 1.8633749999999996 L 2.846288818359375 1.8633749999999996 M 3.0180388183593747 1.6458749999999995 L 3.166538818359375 1.6458749999999995 L 3.092288818359375 1.4613749999999994 L 3.0180388183593747 1.6458749999999995 M 3.433913818359375 1.8633749999999996 L 3.433913818359375 1.8513749999999995 L 3.493913818359375 1.8213749999999995 L 3.493913818359375 1.4103749999999995 L 3.433913818359375 1.3803749999999995 L 3.433913818359375 1.3683749999999995 L 3.6274138183593747 1.3683749999999995 Q 3.706163818359375 1.3683749999999995 3.751538818359375 1.4009999999999996 Q 3.796913818359375 1.4336249999999995 3.796913818359375 1.4906249999999996 Q 3.796913818359375 1.5326249999999995 3.7684138183593747 1.5659999999999996 Q 3.739913818359375 1.5993749999999995 3.692663818359375 1.6166249999999995 L 3.835163818359375 1.8243749999999996 L 3.8846638183593747 1.8513749999999995 L 3.8846638183593747 1.8633749999999996 L 3.776663818359375 1.8633749999999996 L 3.631163818359375 1.6361249999999996 L 3.561413818359375 1.6361249999999996 L 3.561413818359375 1.8206249999999995 L 3.617663818359375 1.8513749999999995 L 3.617663818359375 1.8633749999999996 L 3.433913818359375 1.8633749999999996 M 3.610163818359375 1.4096249999999997 L 3.561413818359375 1.4096249999999997 L 3.561413818359375 1.5948749999999996 L 3.6146638183593747 1.5948749999999996 Q 3.6619138183593747 1.5948749999999996 3.693038818359375 1.5682499999999995 Q 3.724163818359375 1.5416249999999996 3.724163818359375 1.5003749999999996 Q 3.724163818359375 1.4583749999999995 3.693413818359375 1.4339999999999995 Q 3.6626638183593747 1.4096249999999997 3.610163818359375 1.4096249999999997 M 4.01853955078125 1.8633749999999996 L 4.01853955078125 1.8513749999999995 L 4.09353955078125 1.8213749999999995 L 4.09353955078125 1.4096249999999997 L 3.97128955078125 1.4096249999999997 L 3.92028955078125 1.5198749999999994 L 3.90828955078125 1.5198749999999994 L 3.90828955078125 1.3683749999999995 L 4.34628955078125 1.3683749999999995 L 4.34628955078125 1.5198749999999994 L 4.33428955078125 1.5198749999999994 L 4.28328955078125 1.4096249999999997 L 4.16103955078125 1.4096249999999997 L 4.16103955078125 1.8213749999999995 L 4.23603955078125 1.8513749999999995 L 4.23603955078125 1.8633749999999996 L 4.01853955078125 1.8633749999999996 M 4.426172973632812 1.8633749999999996 L 4.426172973632812 1.8513749999999995 L 4.486172973632812 1.8213749999999995 L 4.486172973632812 1.4118749999999995 L 4.426922973632812 1.3803749999999995 L 4.426922973632812 1.3683749999999995 L 4.537172973632812 1.3683749999999995 L 4.823672973632812 1.7283749999999996 L 4.823672973632812 1.4088749999999997 L 4.748672973632812 1.3803749999999995 L 4.748672973632812 1.3683749999999995 L 4.935422973632812 1.3683749999999995 L 4.935422973632812 1.3803749999999995 L 4.876172973632812 1.4096249999999997 L 4.876172973632812 1.8671249999999995 L 4.848422973632812 1.8671249999999995 L 4.538672973632812 1.4763749999999995 L 4.538672973632812 1.8221249999999996 L 4.613672973632812 1.8513749999999995 L 4.613672973632812 1.8633749999999996 L 4.426172973632812 1.8633749999999996 M 5.022799072265625 1.8633749999999996 L 5.022799072265625 1.8513749999999995 L 5.082799072265624 1.8213749999999995 L 5.082799072265624 1.4103749999999995 L 5.022799072265625 1.3803749999999995 L 5.022799072265625 1.3683749999999995 L 5.389549072265624 1.3683749999999995 L 5.389549072265624 1.4973749999999995 L 5.377549072265625 1.4973749999999995 L 5.331049072265625 1.4096249999999997 L 5.150299072265624 1.4096249999999997 L 5.150299072265624 1.5873749999999995 L 5.2777990722656245 1.5873749999999995 L 5.315299072265624 1.5251249999999996 L 5.327299072265625 1.5251249999999996 L 5.327299072265625 1.6893749999999996 L 5.315299072265624 1.6893749999999996 L 5.2777990722656245 1.6286249999999995 L 5.150299072265624 1.6286249999999995 L 5.150299072265624 1.8221249999999996 L 5.352049072265625 1.8221249999999996 L 5.398549072265625 1.7268749999999995 L 5.410549072265624 1.7268749999999995 L 5.410549072265624 1.8633749999999996 L 5.022799072265625 1.8633749999999996 M 5.5129072265625 1.8633749999999996 L 5.5129072265625 1.8513749999999995 L 5.572907226562499 1.8213749999999995 L 5.572907226562499 1.4103749999999995 L 5.5129072265625 1.3803749999999995 L 5.5129072265625 1.3683749999999995 L 5.7064072265625 1.3683749999999995 Q 5.785157226562499 1.3683749999999995 5.830532226562499 1.4009999999999996 Q 5.875907226562499 1.4336249999999995 5.875907226562499 1.4906249999999996 Q 5.875907226562499 1.5326249999999995 5.8474072265625 1.5659999999999996 Q 5.8189072265625 1.5993749999999995 5.7716572265625 1.6166249999999995 L 5.9141572265625 1.8243749999999996 L 5.9636572265625 1.8513749999999995 L 5.9636572265625 1.8633749999999996 L 5.855657226562499 1.8633749999999996 L 5.710157226562499 1.6361249999999996 L 5.640407226562499 1.6361249999999996 L 5.640407226562499 1.8206249999999995 L 5.6966572265624995 1.8513749999999995 L 5.6966572265624995 1.8633749999999996 L 5.5129072265625 1.8633749999999996 M 5.689157226562499 1.4096249999999997 L 5.640407226562499 1.4096249999999997 L 5.640407226562499 1.5948749999999996 L 5.693657226562499 1.5948749999999996 Q 5.740907226562499 1.5948749999999996 5.7720322265625 1.5682499999999995 Q 5.8031572265625 1.5416249999999996 5.8031572265625 1.5003749999999996 Q 5.8031572265625 1.4583749999999995 5.7724072265625 1.4339999999999995 Q 5.741657226562499 1.4096249999999997 5.689157226562499 1.4096249999999997 M 6.202165283203125 1.8633749999999996 L 6.202165283203125 1.8513749999999995 L 6.2621652832031245 1.8213749999999995 L 6.2621652832031245 1.4103749999999995 L 6.202165283203125 1.3803749999999995 L 6.202165283203125 1.3683749999999995 L 6.389665283203125 1.3683749999999995 L 6.389665283203125 1.3803749999999995 L 6.329665283203124 1.4103749999999995 L 6.329665283203124 1.8213749999999995 L 6.389665283203125 1.8513749999999995 L 6.389665283203125 1.8633749999999996 L 6.202165283203125 1.8633749999999996 M 6.48830126953125 1.8633749999999996 L 6.48830126953125 1.8513749999999995 L 6.54830126953125 1.8213749999999995 L 6.54830126953125 1.4118749999999995 L 6.48905126953125 1.3803749999999995 L 6.48905126953125 1.3683749999999995 L 6.599301269531249 1.3683749999999995 L 6.88580126953125 1.7283749999999996 L 6.88580126953125 1.4088749999999997 L 6.810801269531249 1.3803749999999995 L 6.810801269531249 1.3683749999999995 L 6.997551269531249 1.3683749999999995 L 6.997551269531249 1.3803749999999995 L 6.93830126953125 1.4096249999999997 L 6.93830126953125 1.8671249999999995 L 6.91055126953125 1.8671249999999995 L 6.6008012695312495 1.4763749999999995 L 6.6008012695312495 1.8221249999999996 L 6.67580126953125 1.8513749999999995 L 6.67580126953125 1.8633749999999996 L 6.48830126953125 1.8633749999999996 M 7.430309692382813 1.8708749999999996 Q 7.383809692382813 1.8708749999999996 7.351559692382812 1.8622499999999995 Q 7.319309692382812 1.8536249999999996 7.2848096923828125 1.8363749999999996 L 7.277309692382812 1.7133749999999996 L 7.289309692382813 1.7133749999999996 L 7.326059692382812 1.7928749999999996 Q 7.353059692382812 1.8153749999999995 7.3785596923828125 1.8254999999999995 Q 7.404059692382813 1.8356249999999996 7.430309692382813 1.8356249999999996 Q 7.474559692382813 1.8356249999999996 7.499684692382813 1.8123749999999996 Q 7.524809692382812 1.7891249999999996 7.524809692382812 1.7493749999999995 Q 7.524809692382812 1.7163749999999995 7.510184692382812 1.6976249999999995 Q 7.4955596923828125 1.6788749999999997 7.468184692382812 1.6642499999999996 Q 7.440809692382812 1.6496249999999995 7.403309692382813 1.6308749999999996 Q 7.368059692382812 1.6128749999999996 7.343309692382812 1.5956249999999996 Q 7.318559692382812 1.5783749999999994 7.305809692382812 1.5554999999999994 Q 7.293059692382812 1.5326249999999995 7.293059692382812 1.4981249999999995 Q 7.293059692382812 1.4726249999999996 7.305434692382812 1.4482499999999996 Q 7.317809692382812 1.4238749999999996 7.339184692382812 1.4039999999999995 Q 7.360559692382813 1.3841249999999996 7.387184692382812 1.3724999999999996 Q 7.413809692382812 1.3608749999999996 7.442309692382812 1.3608749999999996 Q 7.476809692382813 1.3608749999999996 7.506059692382812 1.3691249999999995 Q 7.535309692382812 1.3773749999999996 7.5660596923828125 1.3923749999999995 L 7.573559692382812 1.5123749999999996 L 7.561559692382812 1.5123749999999996 L 7.527059692382812 1.4336249999999995 Q 7.500809692382813 1.4141249999999996 7.481309692382812 1.4054999999999995 Q 7.461809692382812 1.3968749999999996 7.436309692382812 1.3968749999999996 Q 7.403309692382813 1.3968749999999996 7.381934692382813 1.4193749999999996 Q 7.360559692382813 1.4418749999999996 7.360559692382813 1.4748749999999995 Q 7.360559692382813 1.5131249999999996 7.383809692382813 1.5344999999999995 Q 7.407059692382813 1.5558749999999995 7.456559692382812 1.5798749999999995 Q 7.502309692382813 1.6023749999999994 7.531559692382812 1.6214999999999995 Q 7.560809692382812 1.6406249999999996 7.575059692382812 1.6653749999999996 Q 7.5893096923828125 1.6901249999999997 7.5893096923828125 1.7283749999999996 Q 7.5893096923828125 1.7636249999999996 7.574309692382812 1.7902499999999995 Q 7.559309692382812 1.8168749999999996 7.535684692382812 1.8348749999999996 Q 7.512059692382812 1.8528749999999996 7.483934692382812 1.8618749999999995 Q 7.455809692382812 1.8708749999999996 7.430309692382813 1.8708749999999996 M 7.935439086914062 1.8708749999999996 Q 7.879189086914062 1.8708749999999996 7.835314086914062 1.8498749999999995 Q 7.791439086914062 1.8288749999999996 7.765939086914062 1.7849999999999995 Q 7.740439086914062 1.7411249999999996 7.740439086914062 1.6713749999999996 L 7.740439086914062 1.4103749999999995 L 7.680439086914062 1.3803749999999995 L 7.680439086914062 1.3683749999999995 L 7.867939086914062 1.3683749999999995 L 7.867939086914062 1.3803749999999995 L 7.807939086914062 1.4103749999999995 L 7.807939086914062 1.6601249999999996 Q 7.807939086914062 1.7223749999999995 7.827439086914063 1.7591249999999996 Q 7.8469390869140625 1.7958749999999997 7.880314086914062 1.8116249999999996 Q 7.913689086914062 1.8273749999999995 7.954939086914062 1.8273749999999995 Q 7.9879390869140625 1.8273749999999995 8.016064086914062 1.8131249999999997 Q 8.044189086914063 1.7988749999999996 8.061064086914062 1.7681249999999995 Q 8.077939086914062 1.7373749999999997 8.077939086914062 1.6863749999999995 L 8.077939086914062 1.4088749999999997 L 8.002939086914063 1.3803749999999995 L 8.002939086914063 1.3683749999999995 L 8.189689086914063 1.3683749999999995 L 8.189689086914063 1.3803749999999995 L 8.130439086914063 1.4096249999999997 L 8.130439086914063 1.6713749999999996 Q 8.130439086914063 1.7411249999999996 8.104939086914062 1.7849999999999995 Q 8.079439086914062 1.8288749999999996 8.035564086914063 1.8498749999999995 Q 7.991689086914063 1.8708749999999996 7.935439086914062 1.8708749999999996 M 8.532072509765625 1.8708749999999996 Q 8.455572509765624 1.8708749999999996 8.400072509765623 1.8393749999999995 Q 8.344572509765625 1.8078749999999995 8.314572509765624 1.7534999999999996 Q 8.284572509765624 1.6991249999999996 8.284572509765624 1.6293749999999996 Q 8.284572509765624 1.5761249999999996 8.305197509765623 1.5277499999999995 Q 8.325822509765624 1.4793749999999997 8.361447509765624 1.4418749999999996 Q 8.397072509765623 1.4043749999999995 8.443947509765623 1.3826249999999995 Q 8.490822509765623 1.3608749999999996 8.543322509765623 1.3608749999999996 Q 8.580822509765625 1.3608749999999996 8.607072509765624 1.3657499999999996 Q 8.633322509765623 1.3706249999999995 8.653947509765624 1.3784999999999996 Q 8.674572509765625 1.3863749999999995 8.695572509765624 1.3968749999999996 L 8.699322509765624 1.5281249999999995 L 8.685822509765623 1.5281249999999995 L 8.640072509765623 1.4366249999999996 Q 8.611572509765624 1.4163749999999995 8.590197509765623 1.4073749999999996 Q 8.568822509765624 1.3983749999999995 8.541822509765623 1.3983749999999995 Q 8.487822509765625 1.3983749999999995 8.445447509765623 1.4253749999999996 Q 8.403072509765623 1.4523749999999995 8.378697509765624 1.4992499999999995 Q 8.354322509765623 1.5461249999999995 8.354322509765623 1.6068749999999996 Q 8.354322509765623 1.6781249999999996 8.377947509765624 1.7287499999999996 Q 8.401572509765623 1.7793749999999995 8.441697509765625 1.8059999999999996 Q 8.481822509765625 1.8326249999999995 8.530572509765625 1.8326249999999995 Q 8.571822509765624 1.8326249999999995 8.599947509765624 1.8209999999999995 Q 8.628072509765625 1.8093749999999995 8.649822509765624 1.7951249999999996 L 8.694822509765624 1.7148749999999995 L 8.707572509765624 1.7148749999999995 L 8.699322509765624 1.8341249999999996 Q 8.677572509765625 1.8453749999999995 8.654697509765624 1.8536249999999996 Q 8.631822509765623 1.8618749999999995 8.602572509765624 1.8663749999999995 Q 8.573322509765624 1.8708749999999996 8.532072509765625 1.8708749999999996 M 9.077707397460937 1.8708749999999996 Q 9.001207397460936 1.8708749999999996 8.945707397460936 1.8393749999999995 Q 8.890207397460937 1.8078749999999995 8.860207397460936 1.7534999999999996 Q 8.830207397460937 1.6991249999999996 8.830207397460937 1.6293749999999996 Q 8.830207397460937 1.5761249999999996 8.850832397460936 1.5277499999999995 Q 8.871457397460937 1.4793749999999997 8.907082397460936 1.4418749999999996 Q 8.942707397460936 1.4043749999999995 8.989582397460936 1.3826249999999995 Q 9.036457397460936 1.3608749999999996 9.088957397460936 1.3608749999999996 Q 9.126457397460937 1.3608749999999996 9.152707397460937 1.3657499999999996 Q 9.178957397460936 1.3706249999999995 9.199582397460937 1.3784999999999996 Q 9.220207397460937 1.3863749999999995 9.241207397460936 1.3968749999999996 L 9.244957397460936 1.5281249999999995 L 9.231457397460936 1.5281249999999995 L 9.185707397460936 1.4366249999999996 Q 9.157207397460937 1.4163749999999995 9.135832397460936 1.4073749999999996 Q 9.114457397460937 1.3983749999999995 9.087457397460936 1.3983749999999995 Q 9.033457397460937 1.3983749999999995 8.991082397460936 1.4253749999999996 Q 8.948707397460936 1.4523749999999995 8.924332397460937 1.4992499999999995 Q 8.899957397460936 1.5461249999999995 8.899957397460936 1.6068749999999996 Q 8.899957397460936 1.6781249999999996 8.923582397460937 1.7287499999999996 Q 8.947207397460936 1.7793749999999995 8.987332397460937 1.8059999999999996 Q 9.027457397460937 1.8326249999999995 9.076207397460937 1.8326249999999995 Q 9.117457397460937 1.8326249999999995 9.145582397460936 1.8209999999999995 Q 9.173707397460937 1.8093749999999995 9.195457397460936 1.7951249999999996 L 9.240457397460936 1.7148749999999995 L 9.253207397460937 1.7148749999999995 L 9.244957397460936 1.8341249999999996 Q 9.223207397460936 1.8453749999999995 9.200332397460937 1.8536249999999996 Q 9.177457397460936 1.8618749999999995 9.148207397460936 1.8663749999999995 Q 9.118957397460937 1.8708749999999996 9.077707397460937 1.8708749999999996 M 9.37209228515625 1.8633749999999996 L 9.37209228515625 1.8513749999999995 L 9.43209228515625 1.8213749999999995 L 9.43209228515625 1.4103749999999995 L 9.37209228515625 1.3803749999999995 L 9.37209228515625 1.3683749999999995 L 9.738842285156249 1.3683749999999995 L 9.738842285156249 1.4973749999999995 L 9.726842285156248 1.4973749999999995 L 9.680342285156248 1.4096249999999997 L 9.499592285156249 1.4096249999999997 L 9.499592285156249 1.5873749999999995 L 9.62709228515625 1.5873749999999995 L 9.66459228515625 1.5251249999999996 L 9.676592285156248 1.5251249999999996 L 9.676592285156248 1.6893749999999996 L 9.66459228515625 1.6893749999999996 L 9.62709228515625 1.6286249999999995 L 9.499592285156249 1.6286249999999995 L 9.499592285156249 1.8221249999999996 L 9.70134228515625 1.8221249999999996 L 9.74784228515625 1.7268749999999995 L 9.75984228515625 1.7268749999999995 L 9.75984228515625 1.8633749999999996 L 9.37209228515625 1.8633749999999996 M 10.011450439453125 1.8708749999999996 Q 9.964950439453125 1.8708749999999996 9.932700439453123 1.8622499999999995 Q 9.900450439453124 1.8536249999999996 9.865950439453124 1.8363749999999996 L 9.858450439453124 1.7133749999999996 L 9.870450439453125 1.7133749999999996 L 9.907200439453124 1.7928749999999996 Q 9.934200439453123 1.8153749999999995 9.959700439453124 1.8254999999999995 Q 9.985200439453124 1.8356249999999996 10.011450439453125 1.8356249999999996 Q 10.055700439453124 1.8356249999999996 10.080825439453124 1.8123749999999996 Q 10.105950439453125 1.7891249999999996 10.105950439453125 1.7493749999999995 Q 10.105950439453125 1.7163749999999995 10.091325439453124 1.6976249999999995 Q 10.076700439453123 1.6788749999999997 10.049325439453124 1.6642499999999996 Q 10.021950439453125 1.6496249999999995 9.984450439453123 1.6308749999999996 Q 9.949200439453124 1.6128749999999996 9.924450439453125 1.5956249999999996 Q 9.899700439453124 1.5783749999999994 9.886950439453123 1.5554999999999994 Q 9.874200439453125 1.5326249999999995 9.874200439453125 1.4981249999999995 Q 9.874200439453125 1.4726249999999996 9.886575439453123 1.4482499999999996 Q 9.898950439453124 1.4238749999999996 9.920325439453125 1.4039999999999995 Q 9.941700439453124 1.3841249999999996 9.968325439453125 1.3724999999999996 Q 9.994950439453124 1.3608749999999996 10.023450439453125 1.3608749999999996 Q 10.057950439453125 1.3608749999999996 10.087200439453124 1.3691249999999995 Q 10.116450439453125 1.3773749999999996 10.147200439453124 1.3923749999999995 L 10.154700439453125 1.5123749999999996 L 10.142700439453124 1.5123749999999996 L 10.108200439453125 1.4336249999999995 Q 10.081950439453124 1.4141249999999996 10.062450439453125 1.4054999999999995 Q 10.042950439453124 1.3968749999999996 10.017450439453125 1.3968749999999996 Q 9.984450439453123 1.3968749999999996 9.963075439453124 1.4193749999999996 Q 9.941700439453124 1.4418749999999996 9.941700439453124 1.4748749999999995 Q 9.941700439453124 1.5131249999999996 9.964950439453125 1.5344999999999995 Q 9.988200439453124 1.5558749999999995 10.037700439453124 1.5798749999999995 Q 10.083450439453124 1.6023749999999994 10.112700439453125 1.6214999999999995 Q 10.141950439453124 1.6406249999999996 10.156200439453125 1.6653749999999996 Q 10.170450439453123 1.6901249999999997 10.170450439453123 1.7283749999999996 Q 10.170450439453123 1.7636249999999996 10.155450439453125 1.7902499999999995 Q 10.140450439453124 1.8168749999999996 10.116825439453125 1.8348749999999996 Q 10.093200439453124 1.8528749999999996 10.065075439453125 1.8618749999999995 Q 10.036950439453124 1.8708749999999996 10.011450439453125 1.8708749999999996 M 10.410829833984375 1.8708749999999996 Q 10.364329833984375 1.8708749999999996 10.332079833984373 1.8622499999999995 Q 10.299829833984374 1.8536249999999996 10.265329833984374 1.8363749999999996 L 10.257829833984374 1.7133749999999996 L 10.269829833984375 1.7133749999999996 L 10.306579833984374 1.7928749999999996 Q 10.333579833984373 1.8153749999999995 10.359079833984374 1.8254999999999995 Q 10.384579833984374 1.8356249999999996 10.410829833984375 1.8356249999999996 Q 10.455079833984374 1.8356249999999996 10.480204833984374 1.8123749999999996 Q 10.505329833984375 1.7891249999999996 10.505329833984375 1.7493749999999995 Q 10.505329833984375 1.7163749999999995 10.490704833984374 1.6976249999999995 Q 10.476079833984373 1.6788749999999997 10.448704833984374 1.6642499999999996 Q 10.421329833984375 1.6496249999999995 10.383829833984374 1.6308749999999996 Q 10.348579833984374 1.6128749999999996 10.323829833984375 1.5956249999999996 Q 10.299079833984374 1.5783749999999994 10.286329833984373 1.5554999999999994 Q 10.273579833984375 1.5326249999999995 10.273579833984375 1.4981249999999995 Q 10.273579833984375 1.4726249999999996 10.285954833984373 1.4482499999999996 Q 10.298329833984374 1.4238749999999996 10.319704833984375 1.4039999999999995 Q 10.341079833984374 1.3841249999999996 10.367704833984375 1.3724999999999996 Q 10.394329833984374 1.3608749999999996 10.422829833984375 1.3608749999999996 Q 10.457329833984375 1.3608749999999996 10.486579833984374 1.3691249999999995 Q 10.515829833984375 1.3773749999999996 10.546579833984374 1.3923749999999995 L 10.554079833984375 1.5123749999999996 L 10.542079833984374 1.5123749999999996 L 10.507579833984375 1.4336249999999995 Q 10.481329833984374 1.4141249999999996 10.461829833984375 1.4054999999999995 Q 10.442329833984374 1.3968749999999996 10.416829833984375 1.3968749999999996 Q 10.383829833984374 1.3968749999999996 10.362454833984375 1.4193749999999996 Q 10.341079833984374 1.4418749999999996 10.341079833984374 1.4748749999999995 Q 10.341079833984374 1.5131249999999996 10.364329833984375 1.5344999999999995 Q 10.387579833984374 1.5558749999999995 10.437079833984374 1.5798749999999995 Q 10.482829833984374 1.6023749999999994 10.512079833984375 1.6214999999999995 Q 10.541329833984374 1.6406249999999996 10.555579833984375 1.6653749999999996 Q 10.569829833984373 1.6901249999999997 10.569829833984373 1.7283749999999996 Q 10.569829833984373 1.7636249999999996 10.554829833984375 1.7902499999999995 Q 10.539829833984374 1.8168749999999996 10.516204833984375 1.8348749999999996 Q 10.492579833984374 1.8528749999999996 10.464454833984375 1.8618749999999995 Q 10.436329833984374 1.8708749999999996 10.410829833984375 1.8708749999999996" fill="#3361e1" fill-rule="nonzero"/>
    </g>
  </g>
  <defs>
    <clipPath id="SvgjsClipPath18351">
      <path d=" M -8.61025825678702 -3.14344162839351 h 8.15025825678702 v 8.15025825678702 h -8.15025825678702 Z"/>
    </clipPath>
    <clipPath id="SvgjsClipPath183468798e685-4dbc-4ef8-a40a-44acc2ba6681">
      <path d=" M -8.61025825678702 -3.14344162839351 L -0.46000000000000085 -3.14344162839351 L -0.46000000000000085 5.006816628393509 L -8.61025825678702 5.006816628393509 Z"/>
    </clipPath>
  </defs>
</svg>
