<svg version="1.1" id="Layer_1" xmlns="http://www.w3.org/2000/svg" xmlns:xlink="http://www.w3.org/1999/xlink" x="0px" y="0px"
	 width="100%" viewBox="0 0 254 172" enable-background="new 0 0 254 172" xml:space="preserve">
<path fill="#FFFFFF" opacity="1.000000" stroke="none" 
	d="
M185.000000,173.000000 
	C123.333336,173.000000 62.166676,173.000000 1.000008,173.000000 
	C1.000005,115.666672 1.000005,58.333347 1.000003,1.000016 
	C85.666656,1.000011 170.333313,1.000011 254.999969,1.000005 
	C254.999985,58.333317 254.999985,115.666634 255.000000,172.999969 
	C231.833328,173.000000 208.666672,173.000000 185.000000,173.000000 
M143.842789,57.010265 
	C143.913849,56.683582 143.984909,56.356895 144.960861,55.842888 
	C162.457260,55.833282 179.953827,55.854504 197.449753,55.758709 
	C198.936340,55.750572 201.496185,55.283169 201.734634,54.484741 
	C203.888397,47.273098 205.635239,39.939922 207.537537,32.501022 
	C157.932388,32.501022 109.161736,32.501022 60.034885,32.501022 
	C58.341839,39.799835 56.693920,46.904106 54.881523,54.828266 
	C55.303425,55.070396 55.725327,55.312523 57.041969,55.776302 
	C65.968254,55.776302 74.894539,55.776302 84.165115,55.776302 
	C83.825546,57.396423 83.656731,58.350861 83.424217,59.289513 
	C77.182533,84.486290 70.919731,109.677856 64.728012,134.886887 
	C64.400650,136.219696 64.081581,138.116669 64.745819,139.043442 
	C71.002304,147.772659 77.473694,156.347855 84.349266,165.594482 
	C88.228088,151.037323 91.853271,137.432053 96.418663,123.910690 
	C97.047310,123.899559 97.675949,123.888420 99.204468,123.844673 
	C125.130280,123.880867 151.056091,123.917061 177.267212,124.409920 
	C177.848801,124.061104 178.430405,123.712288 179.554291,123.071136 
	C179.958252,123.019958 180.362213,122.968788 181.229416,122.872391 
	C181.543365,122.782326 181.784241,122.597206 182.348648,121.993782 
	C182.518387,121.977211 182.688126,121.960640 183.606140,121.975319 
	C184.386108,121.270432 185.166077,120.565544 186.230438,119.261520 
	C188.591919,115.822746 190.953400,112.383972 193.696594,108.572090 
	C193.800751,108.056282 193.904907,107.540466 193.983765,106.468544 
	C194.065704,106.302063 194.147659,106.135574 194.636490,105.554001 
	C194.701935,105.175835 194.767380,104.797668 194.751785,103.778763 
	C194.948776,103.168274 195.145767,102.557785 195.697647,101.544189 
	C195.747391,101.192299 195.797134,100.840408 195.731506,99.851814 
	C195.911392,99.237114 196.091278,98.622421 196.827332,97.913513 
	C196.850739,97.263145 196.874130,96.612778 196.862335,95.145729 
	C197.442566,93.054237 198.022797,90.962746 198.818115,88.577469 
	C198.930374,88.353333 198.975037,88.116432 198.899811,87.221962 
	C199.036087,86.817558 199.172348,86.413147 199.855957,85.912109 
	C199.879822,85.265968 199.903702,84.619835 199.837433,83.125969 
	C199.874939,81.423592 199.912460,79.721222 200.414444,77.714752 
	C200.014099,77.141220 199.613739,76.567688 198.943344,75.638626 
	C198.943344,75.638626 198.933533,75.192276 198.836075,74.698746 
	C198.614288,74.454559 198.392517,74.210373 197.606735,73.597839 
	C196.055283,72.292587 194.503845,70.987328 192.595032,69.324196 
	C192.268539,69.259743 191.942032,69.195290 190.808014,69.198769 
	C189.196381,69.045052 187.584763,68.891342 185.801086,68.472382 
	C185.489777,68.279663 185.234619,68.350365 184.108582,68.856415 
	C170.410248,68.795433 156.711914,68.734444 143.003891,68.033897 
	C142.625275,67.340172 142.246658,66.646439 141.817749,65.212051 
	C141.968445,63.988026 142.119125,62.764004 142.705612,61.070396 
	C143.027298,59.874027 143.348984,58.677658 143.842789,57.010265 
z"/>
<path fill="#3B3936" opacity="1.000000" stroke="none" 
	d="
M95.478455,123.826775 
	C91.853271,137.432053 88.228088,151.037323 84.349266,165.594482 
	C77.473694,156.347855 71.002304,147.772659 64.745819,139.043442 
	C64.081581,138.116669 64.400650,136.219696 64.728012,134.886887 
	C70.919731,109.677856 77.182533,84.486290 83.424217,59.289513 
	C83.656731,58.350861 83.825546,57.396423 84.165115,55.776302 
	C74.894539,55.776302 65.968254,55.776302 56.484879,55.355972 
	C55.633858,54.626553 55.339928,54.317463 55.045998,54.008377 
	C56.693920,46.904106 58.341839,39.799835 60.034885,32.501022 
	C109.161736,32.501022 157.932388,32.501022 207.537537,32.501022 
	C205.635239,39.939922 203.888397,47.273098 201.734634,54.484741 
	C201.496185,55.283169 198.936340,55.750572 197.449753,55.758709 
	C179.953827,55.854504 162.457260,55.833282 144.049286,55.830956 
	C134.095901,55.892651 125.054077,55.966270 115.617950,55.950302 
	C113.828751,57.567223 111.727493,59.069244 111.163780,61.016392 
	C108.966362,68.606674 107.264832,76.340164 105.362808,84.016411 
	C102.074333,97.288094 98.773888,110.556816 95.478455,123.826775 
z"/>
<path fill="#C63C2E" opacity="1.000000" stroke="none" 
	d="
M198.603027,88.871254 
	C198.022797,90.962746 197.442566,93.054237 196.663818,95.742867 
	C196.400589,96.895912 196.335876,97.451820 196.271149,98.007721 
	C196.091278,98.622421 195.911392,99.237114 195.583069,100.360809 
	C195.403992,101.228958 195.373367,101.588127 195.342743,101.947289 
	C195.145767,102.557785 194.948776,103.168274 194.566956,104.295959 
	C194.331284,105.198471 194.280457,105.583786 194.229645,105.969093 
	C194.147659,106.135574 194.065704,106.302063 193.808228,106.938385 
	C193.526764,107.920540 193.420807,108.432869 193.314865,108.945190 
	C190.953400,112.383972 188.591919,115.822746 185.779541,119.637238 
	C184.505035,120.656654 183.681442,121.300362 182.857849,121.944061 
	C182.688126,121.960640 182.518387,121.977211 181.910126,122.148758 
	C181.136612,122.393608 180.901474,122.598228 180.766174,122.917603 
	C180.362213,122.968788 179.958252,123.019958 179.007248,123.187790 
	C177.967438,123.520706 177.474670,123.736977 176.981903,123.953262 
	C151.056091,123.917061 125.130280,123.880867 98.764557,123.480659 
	C99.816994,117.687004 101.962761,112.334389 102.614578,106.805656 
	C103.243675,101.469688 105.941330,100.964951 110.256561,101.000145 
	C127.915596,101.144165 145.576767,101.102524 163.236206,100.985580 
	C164.782288,100.975342 167.255539,100.310402 167.688416,99.275948 
	C168.980270,96.188850 169.470718,92.766403 170.392654,88.989548 
	C168.078033,88.989548 166.596313,88.989639 165.114594,88.989532 
	C152.619171,88.988625 140.123276,89.053848 127.628433,88.967880 
	C115.497276,88.884415 108.799530,79.749161 112.351341,68.395409 
	C113.107330,65.978806 113.580879,63.473846 114.373383,60.896870 
	C114.802513,60.594326 114.956017,60.349968 115.018692,60.022335 
	C115.014702,59.993603 115.058556,60.031612 115.470551,59.974106 
	C122.048622,59.595608 128.221283,59.361408 134.376236,58.894066 
	C135.962250,58.773636 137.492584,57.920036 139.376343,57.336658 
	C140.145554,57.316074 140.586914,57.362072 141.216461,57.715675 
	C141.693039,59.195518 141.981430,60.367748 142.269821,61.539978 
	C142.119125,62.764004 141.968445,63.988026 141.619049,65.815170 
	C141.951416,67.170013 142.482498,67.921738 143.013580,68.673462 
	C156.711914,68.734444 170.410248,68.795433 184.802750,68.849411 
	C185.496918,68.842415 185.973129,68.737625 185.973129,68.737625 
	C187.584763,68.891342 189.196381,69.045052 191.376907,69.369171 
	C192.281326,69.587074 192.616867,69.634575 192.952393,69.682076 
	C194.503845,70.987328 196.055283,72.292587 197.913284,74.039032 
	C198.457733,74.717567 198.695633,74.954918 198.933533,75.192276 
	C198.933533,75.192276 198.943344,75.638626 199.065735,76.099213 
	C199.442078,77.046150 199.696014,77.532494 199.949982,78.018845 
	C199.912460,79.721222 199.874939,81.423592 199.677521,83.743942 
	C199.447937,84.910858 199.378265,85.459801 199.308594,86.008736 
	C199.172348,86.413147 199.036087,86.817558 198.767853,87.670242 
	C198.435364,88.361191 198.424408,88.612106 198.603027,88.871254 
z"/>
<path fill="#FDF9F9" opacity="1.000000" stroke="none" 
	d="
M114.184563,61.009598 
	C113.580879,63.473846 113.107330,65.978806 112.351341,68.395409 
	C108.799530,79.749161 115.497276,88.884415 127.628433,88.967880 
	C140.123276,89.053848 152.619171,88.988625 165.114594,88.989532 
	C166.596313,88.989639 168.078033,88.989548 170.392654,88.989548 
	C169.470718,92.766403 168.980270,96.188850 167.688416,99.275948 
	C167.255539,100.310402 164.782288,100.975342 163.236206,100.985580 
	C145.576767,101.102524 127.915596,101.144165 110.256561,101.000145 
	C105.941330,100.964951 103.243675,101.469688 102.614578,106.805656 
	C101.962761,112.334389 99.816994,117.687004 98.314621,123.496964 
	C97.675949,123.888420 97.047310,123.899559 95.948563,123.868729 
	C98.773888,110.556816 102.074333,97.288094 105.362808,84.016411 
	C107.264832,76.340164 108.966362,68.606674 111.163780,61.016392 
	C111.727493,59.069244 113.828751,57.567223 115.615219,56.187843 
	C116.006790,56.514973 116.002113,56.990059 115.727722,57.184349 
	C115.321732,58.262962 115.190140,59.147289 115.058556,60.031612 
	C115.058556,60.031612 115.014702,59.993603 114.756012,60.047073 
	C114.393066,60.403557 114.288811,60.706577 114.184563,61.009598 
z"/>
<path fill="#FBEAE5" opacity="1.000000" stroke="none" 
	d="
M116.002113,56.990059 
	C116.002113,56.990059 116.006790,56.514973 116.009521,56.277435 
	C125.054077,55.966270 134.095901,55.892651 143.596832,55.924622 
	C143.984909,56.356895 143.913849,56.683582 143.427521,57.165504 
	C142.350937,57.349854 141.689621,57.378960 141.028290,57.408066 
	C140.586914,57.362072 140.145554,57.316074 138.916458,57.225891 
	C130.753204,57.117825 123.377655,57.053944 116.002113,56.990059 
z"/>
<path fill="#C7564A" opacity="1.000000" stroke="none" 
	d="
M141.216461,57.715675 
	C141.689621,57.378960 142.350937,57.349854 143.341461,57.401016 
	C143.348984,58.677658 143.027298,59.874027 142.487717,61.305187 
	C141.981430,60.367748 141.693039,59.195518 141.216461,57.715675 
z"/>
<path fill="#FDF9F9" opacity="1.000000" stroke="none" 
	d="
M143.008728,68.353683 
	C142.482498,67.921738 141.951416,67.170013 141.644196,66.185501 
	C142.246658,66.646439 142.625275,67.340172 143.008728,68.353683 
z"/>
<path fill="#FDF9F9" opacity="1.000000" stroke="none" 
	d="
M183.231995,121.959686 
	C183.681442,121.300362 184.505035,120.656654 185.637329,119.936798 
	C185.166077,120.565544 184.386108,121.270432 183.231995,121.959686 
z"/>
<path fill="#FDF9F9" opacity="1.000000" stroke="none" 
	d="
M177.124557,124.181587 
	C177.474670,123.736977 177.967438,123.520706 178.736099,123.333954 
	C178.430405,123.712288 177.848801,124.061104 177.124557,124.181587 
z"/>
<path fill="#FDF9F9" opacity="1.000000" stroke="none" 
	d="
M196.549255,97.960617 
	C196.335876,97.451820 196.400589,96.895912 196.681427,96.151207 
	C196.874130,96.612778 196.850739,97.263145 196.549255,97.960617 
z"/>
<path fill="#FDF9F9" opacity="1.000000" stroke="none" 
	d="
M199.582275,85.960419 
	C199.378265,85.459801 199.447937,84.910858 199.722595,84.167809 
	C199.903702,84.619835 199.879822,85.265968 199.582275,85.960419 
z"/>
<path fill="#FDF9F9" opacity="1.000000" stroke="none" 
	d="
M200.182205,77.866798 
	C199.696014,77.532494 199.442078,77.046150 199.200745,76.276978 
	C199.613739,76.567688 200.014099,77.141220 200.182205,77.866798 
z"/>
<path fill="#FDF9F9" opacity="1.000000" stroke="none" 
	d="
M193.505737,108.758636 
	C193.420807,108.432869 193.526764,107.920540 193.820892,107.216438 
	C193.904907,107.540466 193.800751,108.056282 193.505737,108.758636 
z"/>
<path fill="#FDF9F9" opacity="1.000000" stroke="none" 
	d="
M198.884796,74.945511 
	C198.695633,74.954918 198.457733,74.717567 198.195282,74.223198 
	C198.392517,74.210373 198.614288,74.454559 198.884796,74.945511 
z"/>
<path fill="#FDF9F9" opacity="1.000000" stroke="none" 
	d="
M192.773712,69.503136 
	C192.616867,69.634575 192.281326,69.587074 191.780670,69.335205 
	C191.942032,69.195290 192.268539,69.259743 192.773712,69.503136 
z"/>
<path fill="#FDF9F9" opacity="1.000000" stroke="none" 
	d="
M198.710571,88.724365 
	C198.424408,88.612106 198.435364,88.361191 198.794006,87.992645 
	C198.975037,88.116432 198.930374,88.353333 198.710571,88.724365 
z"/>
<path fill="#FDF9F9" opacity="1.000000" stroke="none" 
	d="
M185.887115,68.605003 
	C185.973129,68.737625 185.496918,68.842415 185.266266,68.763443 
	C185.234619,68.350365 185.489777,68.279663 185.887115,68.605003 
z"/>
<path fill="#FDF9F9" opacity="1.000000" stroke="none" 
	d="
M195.520203,101.745743 
	C195.373367,101.588127 195.403992,101.228958 195.640747,100.679161 
	C195.797134,100.840408 195.747391,101.192299 195.520203,101.745743 
z"/>
<path fill="#FDF9F9" opacity="1.000000" stroke="none" 
	d="
M194.433075,105.761551 
	C194.280457,105.583786 194.331284,105.198471 194.607452,104.616333 
	C194.767380,104.797668 194.701935,105.175835 194.433075,105.761551 
z"/>
<path fill="#FDF9F9" opacity="1.000000" stroke="none" 
	d="
M180.997803,122.894997 
	C180.901474,122.598228 181.136612,122.393608 181.711823,122.310379 
	C181.784241,122.597206 181.543365,122.782326 180.997803,122.894997 
z"/>
<path fill="#2F2D2C" opacity="1.000000" stroke="none" 
	d="
M54.963760,54.418320 
	C55.339928,54.317463 55.633858,54.626553 56.037506,55.245144 
	C55.725327,55.312523 55.303425,55.070396 54.963760,54.418320 
z"/>
<path fill="#C7564A" opacity="1.000000" stroke="none" 
	d="
M115.727722,57.184349 
	C123.377655,57.053944 130.753204,57.117825 138.588623,57.292473 
	C137.492584,57.920036 135.962250,58.773636 134.376236,58.894066 
	C128.221283,59.361408 122.048622,59.595608 115.470551,59.974106 
	C115.190140,59.147289 115.321732,58.262962 115.727722,57.184349 
z"/>
<path fill="#C7564A" opacity="1.000000" stroke="none" 
	d="
M114.373383,60.896870 
	C114.288811,60.706577 114.393066,60.403557 114.760010,60.075806 
	C114.956017,60.349968 114.802513,60.594326 114.373383,60.896870 
z"/>
</svg>